<?xml version="1.0" encoding="UTF-8"?>
<svg version="1.1" xmlns="http://www.w3.org/2000/svg" width="342" height="84">
<path d="M0 0 C5.61 0 11.22 0 17 0 C16.22382964 3.88085181 15.64112982 5.97240857 13.9375 9.3125 C11.85598957 13.91171974 11.24600491 16.97336608 12 22 C14.01237478 24.56120427 16.17312658 26.34641213 18.71484375 28.35546875 C26.17753609 34.44646272 29.58200863 40.39792656 30.84375 50.04296875 C31.25266157 57.78162018 28.80013827 63.98077899 24 70 C18.12957627 76.32860314 11.96426196 79.06654455 3.375 79.5 C-2.86111995 79.36597467 -7.98371153 77.41215339 -13.75390625 75.1875 C-22.20720472 72.09507794 -29.30846458 73.27674393 -38 75 C-32.3835844 63.03925454 -26.66260731 51.1387001 -20.75268555 39.32006836 C-19.56186767 36.93623417 -18.37753166 34.54925033 -17.19335938 32.16210938 C-11.7642267 21.26581377 -5.99511456 10.59482134 0 0 Z M-8.90234375 39.63671875 C-12.68296916 44.02224422 -13.84239664 47.8460179 -13.453125 53.60546875 C-12.48634165 58.71441869 -10.22544193 61.83433572 -6.4375 65.4375 C-1.55997025 67.65455898 2.72726223 67.77008689 8 67 C12.88351295 64.69143024 15.51973231 61.77681185 18 57 C19.28220538 52.68792573 19.18836887 49.65375078 17.9375 45.3125 C15.04605765 40.36906631 11.64320923 37.2932112 6.1875 35.5 C0.46451322 34.38385344 -4.4970453 35.84653384 -8.90234375 39.63671875 Z " fill="#FFFFFF" transform="translate(40,1)"/>
<path d="M0 0 C3.3 0 6.6 0 10 0 C10.33 5.61 10.66 11.22 11 17 C11.99 16.34 12.98 15.68 14 15 C19.5790188 14.30765423 24.47952476 14.25309988 29.5625 16.75 C35.09568687 21.85755711 36.41702944 26.58220212 37 34 C36.62013731 40.41768019 34.62854621 44.58673501 30 49 C25.58810594 51.77319055 20.06112562 51.55960413 15 51 C12.69140625 49.984375 12.69140625 49.984375 11 49 C10.67 49.66 10.34 50.32 10 51 C6.7 51 3.4 51 0 51 C0 34.17 0 17.34 0 0 Z M13.6875 24.4375 C11.25551307 28.13051719 10.78052092 31.61041838 11 36 C12.35086681 39.02336858 13.67585394 40.67585394 16 43 C18.91538029 43.50042146 18.91538029 43.50042146 22 43 C24.30275556 41.1329009 25.67823871 39.64352259 27 37 C27.3506291 31.65290626 27.44403637 28.37127693 24 24 C20.34292482 22.17146241 17.14874457 22.28591554 13.6875 24.4375 Z " fill="#FFFFFF" transform="translate(91,19)"/>
<path d="M0 0 C2.97 0 5.94 0 9 0 C9 16.83 9 33.66 9 51 C6.03 51 3.06 51 0 51 C0 50.01 0 49.02 0 48 C-0.598125 48.495 -1.19625 48.99 -1.8125 49.5 C-6.52120856 51.71586285 -10.88097458 51.67751807 -16 51 C-20.45146251 48.81473658 -23.18885145 46.0605479 -26 42 C-28.05550007 35.83349979 -28.08538284 28.47183936 -25.375 22.5 C-23.1372418 18.79612436 -21.05682531 16.73863942 -17 15 C-11.03709709 14.37653294 -6.41537641 14.2923118 -1 17 C-0.67 11.39 -0.34 5.78 0 0 Z M-15.375 24.4375 C-17.72570359 28.14437874 -18.21805777 31.63884466 -18 36 C-16.64913319 39.02336858 -15.32414606 40.67585394 -13 43 C-9.63288809 43.36599043 -7.65939101 43.37424895 -4.6875 41.6875 C-2.01546869 39.01546869 -1.99094171 36.85959652 -1.75 33.125 C-1.78862591 28.93022597 -2.98492125 26.01507875 -6 23 C-9.72144545 22.64892024 -12.12919394 22.47293318 -15.375 24.4375 Z " fill="#FFFFFF" transform="translate(213,19)"/>
<path d="M0 0 C4.92417292 2.24611397 7.58611949 5.17223898 10 10 C10.495 14.95 10.495 14.95 11 20 C2.42 20 -6.16 20 -15 20 C-12.83333333 25.83333333 -12.83333333 25.83333333 -10 27 C-5.96865858 27.33170813 -5.96865858 27.33170813 -2 27 C-1.360625 26.34 -0.72125 25.68 -0.0625 25 C2.46584323 22.54827323 3.3268943 22.72870541 6.75 22.75 C8.16767057 22.81402383 9.58506449 22.89115881 11 23 C9.79495395 29.14573485 8.15628718 31.42216808 3 35 C-2.52631232 36.84210411 -8.8797929 37.07524045 -14.42578125 35.1640625 C-18.71333292 32.75786589 -21.44867761 29.84210321 -23.37890625 25.3125 C-24.90155776 19.64325665 -24.72326284 14.16978851 -22.875 8.625 C-16.75164782 0.05230694 -10.10081057 -0.87351711 0 0 Z M-15 12 C-15 12.66 -15 13.32 -15 14 C-9.72 14 -4.44 14 1 14 C0.0647121 9.64024261 0.0647121 9.64024261 -3 7 C-8.93041922 6.12141938 -11.32538194 7.32321338 -15 12 Z " fill="#FFFFFF" transform="translate(330,34)"/>
<path d="M0 0 C4.972208 2.2680247 7.3020298 5.30353336 10 10 C11 13 11 13 11 20 C2.42 20 -6.16 20 -15 20 C-12.83333333 25.83333333 -12.83333333 25.83333333 -10 27 C-5.96865858 27.33170813 -5.96865858 27.33170813 -2 27 C-1.360625 26.34 -0.72125 25.68 -0.0625 25 C2.46584323 22.54827323 3.3268943 22.72870541 6.75 22.75 C8.16767057 22.81402383 9.58506449 22.89115881 11 23 C10.56534864 27.92604873 8.40373025 30.51891224 5 34 C-0.4995246 36.73580412 -5.98830008 36.74074124 -12 36 C-16.74850542 34.35068067 -19.94115794 31.69304598 -22.5 27.375 C-24.84183756 21.84449968 -25.23862677 15.59003053 -23.26953125 9.8828125 C-18.00337367 -0.13363416 -10.2990691 -0.89066249 0 0 Z M-14 10 C-14 11.32 -14 12.64 -14 14 C-9.05 14 -4.1 14 1 14 C0.67 12.35 0.34 10.7 0 9 C-4.68754035 5.8749731 -10.03929324 5.56400843 -14 10 Z " fill="#FFFFFF" transform="translate(254,34)"/>
<path d="M0 0 C3.3 0 6.6 0 10 0 C12.31 6.93 14.62 13.86 17 21 C19.26183971 14.46410759 19.26183971 14.46410759 21.51733398 7.92602539 C21.79907471 7.11641357 22.08081543 6.30680176 22.37109375 5.47265625 C22.65911865 4.64000244 22.94714355 3.80734863 23.24389648 2.94946289 C24 1 24 1 25 0 C28.00003445 -0.14177857 30.99757235 -0.04228771 34 0 C32.45755295 8.2929212 29.57866908 16.00436342 26.625 23.875 C26.13747476 25.18599497 25.65049235 26.49719195 25.1640625 27.80859375 C24.22150981 30.34825624 23.27613685 32.88680306 22.32910156 35.42480469 C20.52648162 40.27373314 18.75780401 45.13467224 17 50 C14.03 50 11.06 50 8 50 C8.42947151 47.47233232 8.88121492 45.25760473 9.95825195 42.921875 C12.92597191 36.26004387 11.28218418 31.2041508 8.85549927 24.69604492 C7.98546208 22.45587798 7.08794759 20.22809549 6.1875 18 C5.30554541 15.73610022 4.43181018 13.46915933 3.55915833 11.20166016 C3.01567002 9.79871197 2.46502881 8.39850933 1.90653992 7.00146484 C0 2.20897623 0 2.20897623 0 0 Z " fill="#FFFFFF" transform="translate(269,34)"/>
<path d="M0 0 C7.33333333 0 14.66666667 0 22 0 C22 2.64 22 5.28 22 8 C21.30132812 8.09796875 20.60265625 8.1959375 19.8828125 8.296875 C18.97273438 8.44640625 18.06265625 8.5959375 17.125 8.75 C15.76761719 8.95882812 15.76761719 8.95882812 14.3828125 9.171875 C11.90499032 9.76025285 11.90499032 9.76025285 10.87695312 11.7265625 C9.87303745 14.32914122 9.68309744 16.41787325 9.5859375 19.203125 C9.52792969 20.67265625 9.52792969 20.67265625 9.46875 22.171875 C9.42234375 23.69554687 9.42234375 23.69554687 9.375 25.25 C9.31699219 26.796875 9.31699219 26.796875 9.2578125 28.375 C9.16368326 30.9164894 9.07805021 33.45797433 9 36 C6.03 36 3.06 36 0 36 C0 24.12 0 12.24 0 0 Z " fill="#FFFFFF" transform="translate(159,34)"/>
<path d="M0 0 C2.97 0 5.94 0 9 0 C9 11.88 9 23.76 9 36 C6.03 36 3.06 36 0 36 C0 24.12 0 12.24 0 0 Z " fill="#FFFFFF" transform="translate(138,34)"/>
<path d="M0 0 C2.4375 1.6875 2.4375 1.6875 4 4 C4.64524143 7.79079343 4.30281734 9.47589307 2.375 12.8125 C-0.5319778 15.48997956 -2.06440609 16 -6 16 C-8.86332091 14.76356597 -10.49288133 13.66847461 -12.375 11.1875 C-13.27208761 8.04769336 -12.97238994 6.11164779 -12 3 C-8.19652102 -1.36281413 -5.4599441 -1.58834738 0 0 Z " fill="#FF6D00" transform="translate(47,45)"/>
<path d="M0 0 C2.97 0 5.94 0 9 0 C9 2.97 9 5.94 9 9 C6.03 9 3.06 9 0 9 C0 6.03 0 3.06 0 0 Z " fill="#FFFFFF" transform="translate(138,20)"/>
</svg>
