<?xml version="1.0" encoding="UTF-8"?>
<svg version="1.1" xmlns="http://www.w3.org/2000/svg" width="389" height="133">
<path d="M0 0 C1.44137329 -0.00287018 1.44137329 -0.00287018 2.91186523 -0.00579834 C4.9459662 -0.0071577 6.98007592 -0.00347864 9.01416016 0.00488281 C12.08646856 0.01549195 15.15817961 0.0050278 18.23046875 -0.0078125 C41.76114917 -0.02647957 61.71164236 3.61587549 79.44921875 20.375 C93.71222655 35.7832128 98.02023588 54.0959805 97.29980469 74.63183594 C96.16768507 91.68952644 87.2416121 105.82124713 75.125 117.265625 C57.92462619 132.0791086 38.27027966 133.79695914 16.51831055 133.71166992 C13.16980039 133.70307959 9.82295538 133.73214135 6.47460938 133.76367188 C4.32812551 133.76528235 2.18163864 133.7647093 0.03515625 133.76171875 C-0.95661118 133.77295273 -1.9483786 133.78418671 -2.97019958 133.79576111 C-9.11793536 133.73410006 -12.91578493 133.00467981 -17.875 129.265625 C-19.78932122 126.25744283 -20.12985658 123.9159008 -20.14915466 120.38320923 C-20.15912979 119.40192551 -20.16910492 118.42064178 -20.17938232 117.40962219 C-20.180047 116.33939316 -20.18071167 115.26916412 -20.18139648 114.16650391 C-20.18972 113.0343898 -20.19804352 111.9022757 -20.20661926 110.7358551 C-20.23074369 106.98793107 -20.23949419 103.24018097 -20.24609375 99.4921875 C-20.2550577 96.88910875 -20.2641795 94.28603054 -20.27345276 91.68295288 C-20.29081318 86.22385 -20.29767768 80.7647915 -20.30053711 75.30566406 C-20.3041721 69.00254691 -20.33406686 62.69991677 -20.37594169 56.39694846 C-20.41485586 50.32606948 -20.42613041 44.25542698 -20.42726326 38.18442917 C-20.43147236 35.60481499 -20.44393405 33.02520065 -20.46478081 30.44566727 C-20.49161805 26.83785768 -20.48689124 23.23139339 -20.47436523 19.62353516 C-20.48919952 18.55735458 -20.50403381 17.49117401 -20.51931763 16.39268494 C-20.43937638 8.31210471 -20.43937638 8.31210471 -17.4747467 4.64065552 C-12.05690708 -0.30887839 -7.01475957 -0.03094475 0 0 Z " fill="#014CB8" transform="translate(19.875,-0.265625)"/>
<path d="M0 0 C3.97025713 0.5541525 6.39610025 1.71572235 9.625 4.0625 C12.94389869 6.57003193 12.94389869 6.57003193 17 7 C17.66 6.34 18.32 5.68 19 5 C20.99571323 4.32060826 22.99594773 3.65438441 25 3 C25.99 2.34 26.98 1.68 28 1 C31.32240324 1.3241369 32.60776303 1.60776303 35 4 C36.155 4.33 37.31 4.66 38.5 5 C42 6 42 6 44 8 C44.74765625 7.4225 45.4953125 6.845 46.265625 6.25 C47.25046875 5.5075 48.2353125 4.765 49.25 4 C50.22453125 3.2575 51.1990625 2.515 52.203125 1.75 C55 0 55 0 59 0 C58.84204914 7.10778876 55.38294686 12.52812224 51 18 C48.76953125 19.32421875 48.76953125 19.32421875 47 20 C49.57734573 25.59221683 49.57734573 25.59221683 53.3125 30.4375 C55.55766799 33.84682916 55.10489558 35.98208766 54.5546875 39.9140625 C54 42 54 42 52 45 C51.70662865 47.57754331 51.70662865 47.57754331 51.76953125 50.51171875 C51.77082031 51.64778564 51.77210937 52.78385254 51.7734375 53.9543457 C51.79277344 55.80225708 51.79277344 55.80225708 51.8125 57.6875 C51.81894531 58.95360107 51.82539062 60.21970215 51.83203125 61.52416992 C51.94792526 76.35588658 52.45079984 91.178899 53 106 C51.0679106 106.80478128 49.12892419 107.59300609 47.1875 108.375 C46.10855469 108.81585938 45.02960938 109.25671875 43.91796875 109.7109375 C35.33180093 112.78048322 26.49304118 113.31567767 17.453125 113.3359375 C15.8699649 113.3459227 15.8699649 113.3459227 14.25482178 113.35610962 C12.04310837 113.36615895 9.83136512 113.37092906 7.61962891 113.37060547 C4.2446144 113.37500702 0.87088018 113.411487 -2.50390625 113.44921875 C-4.66405807 113.45508296 -6.82421604 113.459055 -8.984375 113.4609375 C-10.48614288 113.48249405 -10.48614288 113.48249405 -12.01824951 113.50448608 C-18.22283068 113.46408496 -21.93311165 112.65283333 -27 109 C-29.2315435 106.00022021 -29.22167391 103.42360843 -29.125 99.75 C-29.10695313 98.85796875 -29.08890625 97.9659375 -29.0703125 97.046875 C-29.04710938 96.37140625 -29.02390625 95.6959375 -29 95 C-27.80246094 94.91363281 -26.60492187 94.82726562 -25.37109375 94.73828125 C-15.62451568 93.93218085 -6.98385694 92.44070452 2.19140625 89.0234375 C5 88 5 88 7 88 C7.07416092 81.80699281 7.12860756 75.61424416 7.16479492 69.42089844 C7.17988069 67.3140818 7.20035193 65.20729656 7.22631836 63.10058594 C7.26271053 60.0721868 7.2797285 57.04420291 7.29296875 54.015625 C7.30845261 53.07382385 7.32393646 52.13202271 7.33988953 51.16168213 C7.34022942 49.84076569 7.34022942 49.84076569 7.34057617 48.49316406 C7.34723801 47.72039124 7.35389984 46.94761841 7.36076355 46.15142822 C6.90771631 43.44966245 5.66473966 42.13779417 4 40 C3.45673207 35.7314663 3.54091598 33.71923163 5.875 30.0625 C8 28 8 28 10 28 C10.144375 27.05125 10.28875 26.1025 10.4375 25.125 C11 22 11 22 12 20 C11.12408203 19.66548828 11.12408203 19.66548828 10.23046875 19.32421875 C5.39250136 16.45194039 1.89504389 10.03898624 0.328125 4.71875 C0.0625 2.8125 0.0625 2.8125 0 0 Z " fill="#E8F1FE" transform="translate(29,20)"/>
<path d="M0 0 C9.42211202 1.23707586 17.01146906 9.37611943 22.93359375 16.3046875 C35.39065682 32.55303063 39.2707421 51.13838946 36.71582031 71.23535156 C33.26191143 90.41241667 21.73841839 104.64054964 6.3125 115.671875 C4 117 4 117 1 117 C0.39650929 101.31726673 -0.11299199 85.63196895 -0.25 69.9375 C-0.27126953 68.72682861 -0.29253906 67.51615723 -0.31445312 66.26879883 C-0.33801379 60.35969867 -0.26862132 56.13038759 3 51 C3.66666667 48 3.66666667 48 3 45 C1.78625518 43.49878931 0.56556791 41.9990272 -0.75390625 40.58984375 C-2.8128142 37.9629612 -3.28998308 35.22734963 -4 32 C-3.29875 31.38125 -2.5975 30.7625 -1.875 30.125 C3.05569741 25.19430259 6.96086935 18.9275377 8 12 C4.04093183 13.43308135 0.71281819 15.33141949 -2.8125 17.625 C-4.27623047 18.57246094 -4.27623047 18.57246094 -5.76953125 19.5390625 C-6.50558594 20.02117188 -7.24164063 20.50328125 -8 21 C-9.5625 19.75 -9.5625 19.75 -11 18 C-10.80382804 14.37836382 -8.69630894 11.86662165 -6.625 9 C-6.01914063 8.154375 -5.41328125 7.30875 -4.7890625 6.4375 C-3.20629512 4.28106584 -1.61127749 2.1351898 0 0 Z " fill="#024BB4" transform="translate(80,8)"/>
<path d="M0 0 C1.44137329 -0.00287018 1.44137329 -0.00287018 2.91186523 -0.00579834 C4.9459662 -0.0071577 6.98007592 -0.00347864 9.01416016 0.00488281 C12.08646856 0.01549195 15.15817961 0.0050278 18.23046875 -0.0078125 C43.65686671 -0.02876033 43.65686671 -0.02876033 55.4375 4.890625 C56.52675781 5.33664063 57.61601563 5.78265625 58.73828125 6.2421875 C59.52589844 6.57992188 60.31351562 6.91765625 61.125 7.265625 C60.54621094 8.12414062 59.96742187 8.98265625 59.37109375 9.8671875 C57.91516066 12.04628314 56.52940589 14.23894182 55.16015625 16.4765625 C54.50917969 17.52070313 53.85820313 18.56484375 53.1875 19.640625 C52.53910156 20.70023438 51.89070313 21.75984375 51.22265625 22.8515625 C49.125 25.265625 49.125 25.265625 46.49609375 25.71484375 C44.125 25.265625 44.125 25.265625 42.125 23.703125 C40.17829621 21.98038667 40.17829621 21.98038667 37.5 22.453125 C34.97479635 23.12239051 34.97479635 23.12239051 33.125 25.265625 C31.12928677 25.94501674 29.12905227 26.61124059 27.125 27.265625 C26.135 27.925625 25.145 28.585625 24.125 29.265625 C23.42375 28.688125 22.7225 28.110625 22 27.515625 C16.13522019 22.7265834 16.13522019 22.7265834 9.125 20.265625 C8.795 21.585625 8.465 22.905625 8.125 24.265625 C8.125 22.945625 8.125 21.625625 8.125 20.265625 C7.465 20.265625 6.805 20.265625 6.125 20.265625 C5.74408203 21.16087891 5.74408203 21.16087891 5.35546875 22.07421875 C2.18225321 27.72556451 -4.91064247 31.38214367 -10.875 33.265625 C-12.44762581 33.34020416 -14.02347571 33.36181444 -15.59765625 33.3359375 C-16.40082275 33.32578613 -17.20398926 33.31563477 -18.03149414 33.30517578 C-18.63985107 33.29212402 -19.24820801 33.27907227 -19.875 33.265625 C-20.0207733 29.22434048 -20.10923181 25.18373594 -20.1875 21.140625 C-20.22939453 19.99851562 -20.27128906 18.85640625 -20.31445312 17.6796875 C-20.45265073 8.17169238 -20.45265073 8.17169238 -17.66796875 4.5859375 C-12.04230336 -0.08769221 -7.0292048 -0.03100848 0 0 Z " fill="#0162ED" transform="translate(19.875,-0.265625)"/>
<path d="M0 0 C1.42119141 -0.00386719 1.42119141 -0.00386719 2.87109375 -0.0078125 C5.5625 0.125 5.5625 0.125 7.78515625 0.6953125 C9.65215871 1.34886687 9.65215871 1.34886687 11.5625 0.125 C16.76710087 -0.38624099 21.12695931 -0.73632441 25.6875 2 C28.51839567 5.20834842 28.68425303 6.93997363 28.66015625 11.1328125 C28.65693359 12.11894531 28.65371094 13.10507813 28.65039062 14.12109375 C28.63782227 15.66990234 28.63782227 15.66990234 28.625 17.25 C28.62048828 18.29027344 28.61597656 19.33054687 28.61132812 20.40234375 C28.59951952 22.97661962 28.58305075 25.55078146 28.5625 28.125 C22.9375 29.25 22.9375 29.25 19.5625 28.125 C18.66011253 25.41783758 18.44398698 23.88723232 18.46484375 21.11328125 C18.46806641 20.35595703 18.47128906 19.59863281 18.47460938 18.81835938 C18.48298828 18.03267578 18.49136719 17.24699219 18.5 16.4375 C18.50451172 15.64021484 18.50902344 14.84292969 18.51367188 14.02148438 C18.5254415 12.05595743 18.54337652 10.09046915 18.5625 8.125 C16.5825 8.125 14.6025 8.125 12.5625 8.125 C12.5625 14.725 12.5625 21.325 12.5625 28.125 C6.5625 29.125 6.5625 29.125 3.5625 28.125 C3.2325 21.525 2.9025 14.925 2.5625 8.125 C0.5825 8.125 -1.3975 8.125 -3.4375 8.125 C-3.4375 14.725 -3.4375 21.325 -3.4375 28.125 C-9.4375 29.125 -9.4375 29.125 -12.4375 27.125 C-13.10280831 23.35304358 -12.9004138 19.51112153 -12.875 15.6875 C-12.89498047 14.62466797 -12.91496094 13.56183594 -12.93554688 12.46679688 C-12.93458008 10.93829102 -12.93458008 10.93829102 -12.93359375 9.37890625 C-12.93544678 8.44377197 -12.9372998 7.5086377 -12.93920898 6.54516602 C-12.4375 4.125 -12.4375 4.125 -10.59399414 2.35913086 C-6.96616768 0.28297748 -4.10506654 -0.01113994 0 0 Z " fill="#1E1F1F" transform="translate(330.4375,58.875)"/>
<path d="M0 0 C1.45792969 0.00290039 1.45792969 0.00290039 2.9453125 0.00585938 C4.44964844 0.02422852 4.44964844 0.02422852 5.984375 0.04296875 C7.00273437 0.04361328 8.02109375 0.04425781 9.0703125 0.04492188 C16.59397007 0.09006382 16.59397007 0.09006382 17.734375 1.23046875 C17.59101823 9.97523161 14.58659137 17.71463528 8.875 24.41015625 C1.48757583 31.29523557 -5.35826072 33.53142149 -15.265625 33.23046875 C-15.4113983 29.18918423 -15.49985681 25.14857969 -15.578125 21.10546875 C-15.62001953 19.96335937 -15.66191406 18.82125 -15.70507812 17.64453125 C-15.84327573 8.13653613 -15.84327573 8.13653613 -13.05859375 4.55078125 C-8.86789465 1.06927738 -5.41164307 -0.0250085 0 0 Z " fill="#67A6FE" transform="translate(15.265625,-0.23046875)"/>
<path d="M0 0 C4.51831595 1.68309774 6.97314311 4.69256746 9.63671875 8.53125 C11.57017107 14.50401671 11.60439089 21.16149098 9.01171875 26.90625 C6.3621254 31.57368313 2.67610317 33.85145519 -2.36328125 35.53125 C-4.4857877 35.65165604 -6.61239712 35.70658819 -8.73828125 35.71875 C-9.85976562 35.73292969 -10.98125 35.74710938 -12.13671875 35.76171875 C-15.34299668 35.5326989 -17.52072561 35.00421065 -20.36328125 33.53125 C-22.47703151 29.30374948 -21.63115319 23.80560621 -21.65844727 19.1550293 C-21.67568975 17.10463028 -21.71958379 15.05583239 -21.76367188 13.00585938 C-21.77205078 11.71615234 -21.78042969 10.42644531 -21.7890625 9.09765625 C-21.80364502 7.91115479 -21.81822754 6.72465332 -21.83325195 5.50219727 C-21.36328125 2.53125 -21.36328125 2.53125 -19.55078125 0.64575195 C-14.1632023 -2.09914737 -5.84483854 -1.15930682 0 0 Z M-11.36328125 7.53125 C-11.36328125 14.13125 -11.36328125 20.73125 -11.36328125 27.53125 C-5.64619567 28.07295133 -5.64619567 28.07295133 -2.55078125 25.71875 C0.277424 22.89054475 0.58315886 21.10969683 0.94921875 17.15625 C0.58556848 12.93790686 -0.41213117 11.48240008 -3.36328125 8.53125 C-5.88503044 7.0840364 -5.88503044 7.0840364 -11.36328125 7.53125 Z " fill="#1E1F1F" transform="translate(161.36328125,52.46875)"/>
<path d="M0 0 C0 8.25 0 16.5 0 25 C-4.3548363 25.10819469 -8.70696889 25.18742695 -13.0625 25.25 C-14.90618164 25.30027344 -14.90618164 25.30027344 -16.78710938 25.3515625 C-23.70016662 25.42609681 -28.5226244 25.4440551 -34 21 C-36.2315435 18.00022021 -36.22167391 15.42360843 -36.125 11.75 C-36.09792969 10.41195312 -36.09792969 10.41195312 -36.0703125 9.046875 C-36.04710937 8.37140625 -36.02390625 7.6959375 -36 7 C-34.20369141 6.87044922 -34.20369141 6.87044922 -32.37109375 6.73828125 C-22.62451568 5.93218085 -13.98385694 4.44070452 -4.80859375 1.0234375 C-2 0 -2 0 0 0 Z " fill="#78AFFD" transform="translate(36,108)"/>
<path d="M0 0 C1.80791016 0.00193359 1.80791016 0.00193359 3.65234375 0.00390625 C7.3283785 0.47130586 9.20386031 1.10047256 12.0625 3.4375 C14.43232219 7.48475658 14.33082772 11.38599713 14.3125 16 C14.31765625 17.30066406 14.3228125 18.60132813 14.328125 19.94140625 C13.94132493 25.03237772 13.94132493 25.03237772 12.0625 27.4375 C8.41413555 29.43269931 5.17941741 29.73424649 1.0625 29.75 C0.051875 29.76675781 -0.95875 29.78351563 -2 29.80078125 C-6.30801607 29.26800799 -8.9099857 27.4650143 -11.9375 24.4375 C-12.49387763 17.53841743 -12.49387763 17.53841743 -10.8359375 14.2578125 C-8.15398095 11.68622453 -5.89759543 11.62087767 -2.25 11.1875 C-1.07050781 11.03796875 0.10898437 10.8884375 1.32421875 10.734375 C2.22785156 10.63640625 3.13148438 10.5384375 4.0625 10.4375 C4.0625 9.7775 4.0625 9.1175 4.0625 8.4375 C-0.45367599 8.36095464 -4.52835217 8.33521304 -8.9375 9.4375 C-9.5975 7.7875 -10.2575 6.1375 -10.9375 4.4375 C-7.60198174 0.23690967 -5.26443598 -0.08427592 0 0 Z M-0.9375 17.4375 C-1.9275 18.9225 -1.9275 18.9225 -2.9375 20.4375 C-2.2775 21.0975 -1.6175 21.7575 -0.9375 22.4375 C1.66530568 22.11708603 1.66530568 22.11708603 4.0625 21.4375 C4.0625 20.1175 4.0625 18.7975 4.0625 17.4375 C1.64630177 17.18719023 1.64630177 17.18719023 -0.9375 17.4375 Z " fill="#1E1F1F" transform="translate(374.9375,58.5625)"/>
<path d="M0 0 C1.80791016 0.00193359 1.80791016 0.00193359 3.65234375 0.00390625 C7.3283785 0.47130586 9.20386031 1.10047256 12.0625 3.4375 C14.458311 7.50965923 14.30037007 11.41929521 14.25 16.0625 C14.24355469 17.37476562 14.23710937 18.68703125 14.23046875 20.0390625 C14.0625 23.4375 14.0625 23.4375 13.0625 26.4375 C7.75579486 30.30996051 1.37680921 30.30433653 -4.9375 29.4375 C-7.74746689 28.00653535 -9.71022375 26.66477625 -11.9375 24.4375 C-12.23828125 22.37890625 -12.23828125 22.37890625 -12.25 20 C-12.26675781 19.21753906 -12.28351563 18.43507813 -12.30078125 17.62890625 C-11.9375 15.4375 -11.9375 15.4375 -10.8359375 13.7265625 C-8.08650883 11.85966649 -5.52475202 11.67150274 -2.25 11.25 C-1.07050781 11.09144531 0.10898437 10.93289062 1.32421875 10.76953125 C2.22785156 10.65996094 3.13148438 10.55039063 4.0625 10.4375 C4.0625 9.7775 4.0625 9.1175 4.0625 8.4375 C-0.45367599 8.36095464 -4.52835217 8.33521304 -8.9375 9.4375 C-9.5975 7.7875 -10.2575 6.1375 -10.9375 4.4375 C-7.60198174 0.23690967 -5.26443598 -0.08427592 0 0 Z M-0.9375 17.4375 C-1.9275 18.9225 -1.9275 18.9225 -2.9375 20.4375 C-2.2775 21.0975 -1.6175 21.7575 -0.9375 22.4375 C1.66530568 22.11708603 1.66530568 22.11708603 4.0625 21.4375 C4.0625 20.1175 4.0625 18.7975 4.0625 17.4375 C1.64630177 17.18719023 1.64630177 17.18719023 -0.9375 17.4375 Z " fill="#1E1F1F" transform="translate(298.9375,58.5625)"/>
<path d="M0 0 C4.92367573 4.17766426 4.92367573 4.17766426 5.2421875 7.78515625 C5.24920398 9.77432708 5.16183507 11.76329862 5.0625 13.75 C1.23504549 15.49685308 -2.06192723 16.09886333 -6.25 16.375 C-7.31863281 16.44976562 -8.38726562 16.52453125 -9.48828125 16.6015625 C-10.70064453 16.67503906 -10.70064453 16.67503906 -11.9375 16.75 C-11.9375 17.41 -11.9375 18.07 -11.9375 18.75 C-6.56360865 19.59850916 -2.35562117 19.63459121 3.0625 18.75 C4.0625 19.75 4.0625 19.75 4.4375 22.125 C4.0625 24.75 4.0625 24.75 2.25 26.5625 C-3.0472361 28.53598011 -8.67183937 28.79336089 -14.1015625 27.05859375 C-17.06645304 25.55091537 -18.91175647 23.78487833 -20.875 21.125 C-22.61963825 15.58320791 -23.02666619 10.18765766 -20.625 4.8125 C-15.26967559 -1.7328965 -8.00408745 -3.40599466 0 0 Z M-9.9375 5.75 C-11.71159808 7.67022703 -11.71159808 7.67022703 -12.9375 9.75 C-8.4825 9.255 -8.4825 9.255 -3.9375 8.75 C-4.5975 7.76 -5.2575 6.77 -5.9375 5.75 C-7.2575 5.75 -8.5775 5.75 -9.9375 5.75 Z " fill="#1E1F20" transform="translate(196.9375,60.25)"/>
<path d="M0 0 C6.33788122 0.47833066 6.33788122 0.47833066 9.0625 2.625 C11.03024761 4.32568839 11.03024761 4.32568839 14.125 3.8125 C17.10154442 3.22389082 17.10154442 3.22389082 19 1 C22.625 0.875 22.625 0.875 26 1 C25.835 1.639375 25.67 2.27875 25.5 2.9375 C24.75638506 7.4921415 24.2018753 12.61018662 25.68359375 17.046875 C26 19 26 19 24.85546875 20.88671875 C24.30503906 21.48097656 23.75460938 22.07523438 23.1875 22.6875 C22.64480469 23.28949219 22.10210937 23.89148438 21.54296875 24.51171875 C18.25850522 27.67977091 14.89756484 27.32676463 10.54296875 27.2890625 C6.8786215 26.87253148 4.76836577 25.36323907 2 23 C1.360625 22.54625 0.72125 22.0925 0.0625 21.625 C-1.63185053 19.03364036 -0.61377152 16.95726277 0 14 C0.25385155 9.53571413 -0.07239782 5.37298171 -1 1 C-0.67 0.67 -0.34 0.34 0 0 Z " fill="#B1D1FD" transform="translate(46,47)"/>
<path d="M0 0 C0.95003906 -0.01675781 1.90007812 -0.03351562 2.87890625 -0.05078125 C5.4375 0.3125 5.4375 0.3125 7.296875 1.6640625 C8.4375 3.3125 8.4375 3.3125 8.125 6 C7.898125 6.763125 7.67125 7.52625 7.4375 8.3125 C4.1375 8.3125 0.8375 8.3125 -2.5625 8.3125 C-2.8925 9.9625 -3.2225 11.6125 -3.5625 13.3125 C-0.2625 13.3125 3.0375 13.3125 6.4375 13.3125 C7.0625 15.6875 7.0625 15.6875 7.4375 18.3125 C6.7775 18.9725 6.1175 19.6325 5.4375 20.3125 C2.7975 20.3125 0.1575 20.3125 -2.5625 20.3125 C-2.5625 26.2525 -2.5625 32.1925 -2.5625 38.3125 C-9.3125 39.4375 -9.3125 39.4375 -12.5625 37.3125 C-12.63691989 33.13162848 -12.69122818 28.9511127 -12.72729492 24.76977539 C-12.7423376 23.34880859 -12.76277704 21.92788787 -12.78881836 20.50708008 C-12.82540347 18.45903114 -12.84227097 16.4115985 -12.85546875 14.36328125 C-12.8711792 13.13262939 -12.88688965 11.90197754 -12.90307617 10.6340332 C-12.53375399 7.03214917 -11.70997607 5.19090599 -9.5625 2.3125 C-6.47334227 0.14156325 -3.72058871 0.01518608 0 0 Z " fill="#1E1F1F" transform="translate(218.5625,48.6875)"/>
<path d="M0 0 C3.5625 0.1875 3.5625 0.1875 5.5625 2.1875 C5.78955078 4.70947266 5.78955078 4.70947266 5.7578125 7.8515625 C5.74814453 9.53378906 5.74814453 9.53378906 5.73828125 11.25 C5.72152344 12.425625 5.70476562 13.60125 5.6875 14.8125 C5.67847656 15.99585937 5.66945312 17.17921875 5.66015625 18.3984375 C5.63652812 21.32832523 5.60358514 24.2578134 5.5625 27.1875 C6.95275391 27.17009766 6.95275391 27.17009766 8.37109375 27.15234375 C9.56863281 27.14332031 10.76617187 27.13429688 12 27.125 C13.19496094 27.11339844 14.38992188 27.10179688 15.62109375 27.08984375 C18.5625 27.1875 18.5625 27.1875 19.5625 28.1875 C19.6875 31.1875 19.6875 31.1875 19.5625 34.1875 C17.19313435 36.55686565 11.30681576 35.42083037 8.125 35.4375 C7.14466797 35.458125 6.16433594 35.47875 5.15429688 35.5 C4.21779297 35.50515625 3.28128906 35.5103125 2.31640625 35.515625 C1.45345947 35.5249707 0.5905127 35.53431641 -0.29858398 35.54394531 C-1.00442627 35.42631836 -1.71026855 35.30869141 -2.4375 35.1875 C-4.91167002 31.47624497 -4.68221623 29.57521205 -4.66796875 25.1484375 C-4.66751053 24.46697662 -4.66705231 23.78551575 -4.6665802 23.08340454 C-4.66356368 21.64608006 -4.6556953 20.20875867 -4.64331055 18.77148438 C-4.62500983 16.56368529 -4.62280123 14.35630465 -4.62304688 12.1484375 C-4.58116076 0.2498815 -4.58116076 0.2498815 0 0 Z " fill="#1F1F1F" transform="translate(249.4375,51.8125)"/>
<path d="M0 0 C2.64 0 5.28 0 8 0 C10 2 10 2 10.22705078 5.43994141 C10.22673369 6.91051979 10.21540987 8.38112142 10.1953125 9.8515625 C10.1924826 10.62559418 10.18965271 11.39962585 10.18673706 12.19711304 C10.17552754 14.67323157 10.15042203 17.1489905 10.125 19.625 C10.11497118 21.30207812 10.10584516 22.97916189 10.09765625 24.65625 C10.07558574 28.77097223 10.04105102 32.88542511 10 37 C5.46625958 38.03039555 4.35532149 38.17766075 0 36 C0 24.12 0 12.24 0 0 Z " fill="#1E1F1F" transform="translate(273,50)"/>
<path d="M0 0 C1 1 1 1 1.11352539 3.50024414 C1.10828857 4.58426514 1.10305176 5.66828613 1.09765625 6.78515625 C1.09443359 7.95498047 1.09121094 9.12480469 1.08789062 10.33007812 C1.07951172 11.56177734 1.07113281 12.79347656 1.0625 14.0625 C1.05798828 15.29806641 1.05347656 16.53363281 1.04882812 17.80664062 C1.03699608 20.87114117 1.02051173 23.93554721 1 27 C-1.8125 27.625 -1.8125 27.625 -5 28 C-5.99 27.34 -6.98 26.68 -8 26 C-8.34057617 23.38623047 -8.34057617 23.38623047 -8.29296875 20.1171875 C-8.2784668 18.36728516 -8.2784668 18.36728516 -8.26367188 16.58203125 C-8.23853516 15.35871094 -8.21339844 14.13539062 -8.1875 12.875 C-8.17396484 11.64394531 -8.16042969 10.41289063 -8.14648438 9.14453125 C-8.11103543 6.09592157 -8.06162079 3.048175 -8 0 C-5.11795733 -1.44102133 -3.08226581 -0.65580124 0 0 Z " fill="#1E1F1F" transform="translate(238,60)"/>
<path d="M0 0 C0.33 0 0.66 0 1 0 C0.70623982 8.81280554 -2.07024091 16.66243572 -8.0703125 23.28515625 C-10.99724445 25.91507481 -13.24323293 27.74774431 -17 29 C-15.71026258 25.54252773 -14.20666855 22.52927613 -12.21484375 19.42578125 C-11.68439453 18.59369141 -11.15394531 17.76160156 -10.60742188 16.90429688 C-10.05634766 16.04900391 -9.50527344 15.19371094 -8.9375 14.3125 C-7.84171306 12.60073061 -6.74662601 10.88851292 -5.65234375 9.17578125 C-5.16757568 8.42208252 -4.68280762 7.66838379 -4.18334961 6.8918457 C-2.96869037 5.01668656 -2.96869037 5.01668656 -2 3 C-1.34 3 -0.68 3 0 3 C0 2.01 0 1.02 0 0 Z " fill="#4490FD" transform="translate(32,1)"/>
<path d="M0 0 C0 1.98 0 3.96 0 6 C-4.29161047 6.05783842 -8.58312145 6.0935412 -12.875 6.125 C-14.09832031 6.14175781 -15.32164063 6.15851563 -16.58203125 6.17578125 C-18.33193359 6.18544922 -18.33193359 6.18544922 -20.1171875 6.1953125 C-21.19597168 6.20578613 -22.27475586 6.21625977 -23.38623047 6.22705078 C-26 6 -26 6 -28 4 C-24.55752697 1.88155506 -21.98323012 1.91870959 -18 2 C-15.52865672 1.57806334 -13.12280929 1.02987253 -10.6875 0.4375 C-7.08573458 -0.14883391 -3.64833649 -0.06183621 0 0 Z " fill="#539AFE" transform="translate(35,127)"/>
<path d="M0 0 C2.375 0.875 2.375 0.875 4.375 3.875 C4.1875 6.4375 4.1875 6.4375 3.375 8.875 C0.375 10.875 0.375 10.875 -2.1875 10.625 C-4.625 9.875 -4.625 9.875 -6.625 7.875 C-7 5.4375 -7 5.4375 -6.625 2.875 C-4.39928105 0.40197895 -3.34204055 -0.15914479 0 0 Z " fill="#1E1F20" transform="translate(235.625,47.125)"/>
<path d="M0 0 C1.51400391 0.01740234 1.51400391 0.01740234 3.05859375 0.03515625 C4.07050781 0.04417969 5.08242188 0.05320313 6.125 0.0625 C7.29869141 0.07990234 7.29869141 0.07990234 8.49609375 0.09765625 C8.49609375 3.69526101 7.60097079 4.31921855 5.49609375 7.09765625 C4.79094529 9.24499552 4.79094529 9.24499552 4.49609375 11.09765625 C3.50609375 11.09765625 2.51609375 11.09765625 1.49609375 11.09765625 C1.22796875 10.19015625 0.95984375 9.28265625 0.68359375 8.34765625 C-0.39966919 5.38293662 -1.48750082 3.48068085 -3.50390625 1.09765625 C-2.50390625 0.09765625 -2.50390625 0.09765625 0 0 Z " fill="#093E88" transform="translate(55.50390625,55.90234375)"/>
<path d="M0 0 C5.03985731 0.44469329 7.37634988 2.71343362 11 6 C10.67 6.99 10.34 7.98 10 9 C8.53932801 8.54917531 7.08151968 8.08906463 5.625 7.625 C4.81289062 7.36976562 4.00078125 7.11453125 3.1640625 6.8515625 C1 6 1 6 -1 4 C-0.625 1.875 -0.625 1.875 0 0 Z " fill="#EFF5FD" transform="translate(88,88)"/>
<path d="M0 0 C0.53625 0.2475 1.0725 0.495 1.625 0.75 C1.3671875 2.60546875 1.3671875 2.60546875 0.625 4.75 C-1.1171875 6.05078125 -1.1171875 6.05078125 -3.25 7.0625 C-4.29800781 7.58263672 -4.29800781 7.58263672 -5.3671875 8.11328125 C-7.375 8.75 -7.375 8.75 -10.375 7.75 C-8.77449323 3.26858103 -4.98031651 -0.52424384 0 0 Z " fill="#F0F4FA" transform="translate(27.375,88.25)"/>
<path d="M0 0 C1.11375 0.3403125 1.11375 0.3403125 2.25 0.6875 C2.63218767 2.34364657 2.96395102 4.01207024 3.25 5.6875 C2.25 6.6875 2.25 6.6875 -1.3125 6.75 C-2.446875 6.729375 -3.58125 6.70875 -4.75 6.6875 C-5.41 5.3675 -6.07 4.0475 -6.75 2.6875 C-4.29511132 0.41445492 -3.41240272 -0.38777304 0 0 Z " fill="#AACBFA" transform="translate(15.75,63.3125)"/>
<path d="M0 0 C-0.125 1.75 -0.125 1.75 -1 4 C-3.75 6.3125 -3.75 6.3125 -7 8 C-9.875 7.75 -9.875 7.75 -12 7 C-11.9375 5.1875 -11.9375 5.1875 -11 3 C-7.03126406 0.90330932 -4.51561274 0 0 0 Z " fill="#F2F5FA" transform="translate(99,38)"/>
<path d="M0 0 C4.56454251 0.54339792 7.9728176 1.79463821 12 4 C11.67 5.32 11.34 6.64 11 8 C6.4926374 7.46972205 3.5460927 5.80388725 0 3 C0 2.01 0 1.02 0 0 Z " fill="#F1F6FD" transform="translate(17,38)"/>
<path d="M0 0 C5.53846154 -0.36923077 5.53846154 -0.36923077 7.875 1.5 C8.24625 1.995 8.6175 2.49 9 3 C7.3125 4.5625 7.3125 4.5625 5 6 C2.25 5.6875 2.25 5.6875 0 5 C-0.33 4.01 -0.66 3.02 -1 2 C-0.67 1.34 -0.34 0.68 0 0 Z " fill="#AACCFB" transform="translate(99,64)"/>
</svg>
