<?xml version="1.0" encoding="UTF-8"?>
<svg version="1.1" xmlns="http://www.w3.org/2000/svg" width="231" height="53">
<path d="M0 0 C76.23 0 152.46 0 231 0 C231 17.49 231 34.98 231 53 C154.77 53 78.54 53 0 53 C0 35.51 0 18.02 0 0 Z " fill="#121217" transform="translate(0,0)"/>
<path d="M0 0 C1.34882408 0.63474075 2.6846659 1.29848848 4 2 C6.66709069 2.16750414 6.66709069 2.16750414 9 2 C8.690625 3.11375 8.690625 3.11375 8.375 4.25 C7.7351967 6.91969642 7.7351967 6.91969642 8.94140625 8.73828125 C10.38216478 11.81650704 10.39278151 14.5539633 10.5625 17.9375 C10.77864225 22.06184697 11.07487741 25.97074708 12 30 C10.68 29.34 9.36 28.68 8 28 C7.34 29.32 6.68 30.64 6 32 C4.35 31.67 2.7 31.34 1 31 C0.01 32.98 -0.98 34.96 -2 37 C-5.99996286 35.66667905 -6.83782337 33.5042173 -9 30 C-9.99 30.66 -10.98 31.32 -12 32 C-12.66 31.01 -13.32 30.02 -14 29 C-15.65 29.66 -17.3 30.32 -19 31 C-18.86722656 30.40574219 -18.73445313 29.81148437 -18.59765625 29.19921875 C-17.39375709 23.54880154 -16.64724727 18.01351183 -16.24609375 12.25 C-16 10 -16 10 -15 8 C-14.01 8.33 -13.02 8.66 -12 9 C-12 10.65 -12 12.3 -12 14 C-10.68 14.66 -9.36 15.32 -8 16 C-8 16.66 -8 17.32 -8 18 C-8.66 18.33 -9.32 18.66 -10 19 C-10 19.66 -10 20.32 -10 21 C-9.401875 21.556875 -8.80375 22.11375 -8.1875 22.6875 C-5.42294358 25.61003107 -4.43825182 28.26054527 -3 32 C-1.68 28.7 -0.36 25.4 1 22 C-1.51083114 23.25541557 -1.87125446 24.50063488 -3 27 C-5.25245881 24.31158141 -6.88213958 22.35358125 -8 19 C-7.34 19 -6.68 19 -6 19 C-5.855625 18.030625 -5.71125 17.06125 -5.5625 16.0625 C-5 13 -5 13 -4 12 C-4.721875 11.79375 -5.44375 11.5875 -6.1875 11.375 C-9.9255306 9.54751837 -11.49246917 7.29561194 -14 4 C-9.07944309 0.78657508 -6.0548551 -0.68545529 0 0 Z " fill="#D3D3D3" transform="translate(37,10)"/>
<path d="M0 0 C5.61 0 11.22 0 17 0 C17.66 1.65 18.32 3.3 19 5 C19.66 5 20.32 5 21 5 C21.66 3.35 22.32 1.7 23 0 C24.32 0 25.64 0 27 0 C26.690625 0.721875 26.38125 1.44375 26.0625 2.1875 C25.0363217 4.90385433 24.21722962 7.10360503 24 10 C25.37249963 12.67676547 25.37249963 12.67676547 27 15 C27 15.66 27 16.32 27 17 C25.68 17 24.36 17 23 17 C22.34 15.68 21.68 14.36 21 13 C20.34 13 19.68 13 19 13 C18.34 14.32 17.68 15.64 17 17 C15.68 17 14.36 17 13 17 C13.309375 16.278125 13.61875 15.55625 13.9375 14.8125 C14.9636783 12.09614567 15.78277038 9.89639497 16 7 C14.66457328 4.21692394 14.66457328 4.21692394 13 2 C12.67 2.33 12.34 2.66 12 3 C9.32941149 3.14115161 6.67567762 3.04247107 4 3 C4 4.32 4 5.64 4 7 C6.31 7 8.62 7 11 7 C11 7.99 11 8.98 11 10 C8.69 10 6.38 10 4 10 C4 11.32 4 12.64 4 14 C6.64 14 9.28 14 12 14 C12 14.99 12 15.98 12 17 C8.04 17 4.08 17 0 17 C0 11.39 0 5.78 0 0 Z " fill="#BFBFC0" transform="translate(73,17)"/>
<path d="M0 0 C1.58246707 -0.08153933 3.16616273 -0.13943557 4.75 -0.1875 C6.07257812 -0.23970703 6.07257812 -0.23970703 7.421875 -0.29296875 C10.56785042 0.06452846 11.84761267 0.6793801 14 3 C14.49609375 5.59375 14.49609375 5.59375 14.4375 8.5 C14.43621094 9.4590625 14.43492188 10.418125 14.43359375 11.40625 C14 14 14 14 12.828125 15.83203125 C10.25484421 17.47607175 8.3362408 17.29422026 5.3125 17.1875 C3.82169922 17.14689453 3.82169922 17.14689453 2.30078125 17.10546875 C1.54152344 17.07066406 0.78226563 17.03585938 0 17 C0 16.01 0 15.02 0 14 C0.66 14 1.32 14 2 14 C2 10.37 2 6.74 2 3 C1.34 3 0.68 3 0 3 C0 2.01 0 1.02 0 0 Z " fill="#D1D1D1" transform="translate(57,17)"/>
<path d="M0 0 C1.34882408 0.63474075 2.6846659 1.29848848 4 2 C6.66709069 2.16750414 6.66709069 2.16750414 9 2 C6.99129829 6.52942542 4.11048057 9.29140965 0 12 C-2.9375 12.8125 -2.9375 12.8125 -6 12 C-8.88654717 9.87830925 -11.46252254 7.52459687 -14 5 C-8.90776678 0.84580974 -6.68344057 -0.3456952 0 0 Z " fill="#DCDCDD" transform="translate(37,10)"/>
<path d="M0 0 C0.99 0.33 1.98 0.66 3 1 C3 2.65 3 4.3 3 6 C4.32 6.66 5.64 7.32 7 8 C7 8.66 7 9.32 7 10 C6.01 10.495 6.01 10.495 5 11 C5 11.66 5 12.32 5 13 C5.61875 13.598125 6.2375 14.19625 6.875 14.8125 C9.88977916 17.91594913 10.93341304 20.50179344 11.125 24.8125 C11.08375 25.534375 11.0425 26.25625 11 27 C9.35 25.35 7.7 23.7 6 22 C5.01 22.66 4.02 23.32 3 24 C2.34 23.01 1.68 22.02 1 21 C-0.65 21.66 -2.3 22.32 -4 23 C-3.86722656 22.40574219 -3.73445313 21.81148437 -3.59765625 21.19921875 C-2.39375709 15.54880154 -1.64724727 10.01351183 -1.24609375 4.25 C-1 2 -1 2 0 0 Z " fill="#D8D8D8" transform="translate(22,18)"/>
<path d="M0 0 C9.625 -0.25 9.625 -0.25 13 2 C13.31845551 5.10494126 12.99424641 7.01726077 12 10 C11.96045766 12.33299825 11.95598268 14.66708189 12 17 C11.34 17 10.68 17 10 17 C9.67 15.02 9.34 13.04 9 11 C6.03 10.505 6.03 10.505 3 10 C3 12.31 3 14.62 3 17 C2.01 17 1.02 17 0 17 C0 11.39 0 5.78 0 0 Z " fill="#BABABC" transform="translate(205,17)"/>
<path d="M0 0 C9.625 -0.25 9.625 -0.25 13 2 C13.31845551 5.10494126 12.99424641 7.01726077 12 10 C11.96045766 12.33299825 11.95598268 14.66708189 12 17 C11.34 17 10.68 17 10 17 C9.67 15.02 9.34 13.04 9 11 C6.03 10.505 6.03 10.505 3 10 C3 12.31 3 14.62 3 17 C2.01 17 1.02 17 0 17 C0 11.39 0 5.78 0 0 Z " fill="#BABABC" transform="translate(134,17)"/>
<path d="M0 0 C1.65 0 3.3 0 5 0 C6.32 3.3 7.64 6.6 9 10 C9.33 6.7 9.66 3.4 10 0 C10.99 0 11.98 0 13 0 C13 5.61 13 11.22 13 17 C11.35 17 9.7 17 8 17 C6.22742965 13.60899585 4.93411993 10.7364797 4 7 C3.67 10.3 3.34 13.6 3 17 C2.01 17 1.02 17 0 17 C0 11.39 0 5.78 0 0 Z " fill="#C1C1C3" transform="translate(176,17)"/>
<path d="M0 0 C1 2 1 2 0.1875 5.5625 C-1 9 -1 9 -3 10 C-3 10.66 -3 11.32 -3 12 C-2.34 12.33 -1.68 12.66 -1 13 C-1.33 13.99 -1.66 14.98 -2 16 C-2.78375 16.0825 -3.5675 16.165 -4.375 16.25 C-7.14749104 16.72806339 -7.14749104 16.72806339 -8.3125 19.0625 C-8.539375 19.701875 -8.76625 20.34125 -9 21 C-11.25245881 18.31158141 -12.88213958 16.35358125 -14 13 C-13.34 13 -12.68 13 -12 13 C-11.95875 12.071875 -11.9175 11.14375 -11.875 10.1875 C-11 7 -11 7 -8.25 5.375 C-7.1775 4.92125 -6.105 4.4675 -5 4 C-3.30140333 2.70758949 -1.62390477 1.38509525 0 0 Z " fill="#19191E" transform="translate(43,16)"/>
<path d="M0 0 C2.26045805 1.96878604 3.80271461 3.54377754 5 6.3125 C5 10.3634913 3.18359847 12.62534782 1 16 C0.67 15.01 0.34 14.02 0 13 C-2.64 13 -5.28 13 -8 13 C-8 11.68 -8 10.36 -8 9 C-5.69 9 -3.38 9 -1 9 C-1 8.01 -1 7.02 -1 6 C-3.31 6 -5.62 6 -8 6 C-8 4.68 -8 3.36 -8 2 C-5.36 2 -2.72 2 0 2 C0 1.34 0 0.68 0 0 Z " fill="#141419" transform="translate(85,18)"/>
<path d="M0 0 C0.99 0.66 1.98 1.32 3 2 C3 3.32 3 4.64 3 6 C2.34 6 1.68 6 1 6 C1 5.01 1 4.02 1 3 C-0.98 3 -2.96 3 -5 3 C-5 3.99 -5 4.98 -5 6 C-0.545 7.98 -0.545 7.98 4 10 C4.125 12.375 4.125 12.375 4 15 C2 17 2 17 -0.09375 17.265625 C-0.8878125 17.26046875 -1.681875 17.2553125 -2.5 17.25 C-3.2940625 17.25515625 -4.088125 17.2603125 -4.90625 17.265625 C-7 17 -7 17 -9 15 C-9 13.68 -9 12.36 -9 11 C-8.01 11 -7.02 11 -6 11 C-5.67 11.99 -5.34 12.98 -5 14 C-3.35 14 -1.7 14 0 14 C0 13.01 0 12.02 0 11 C-0.56589844 10.79503906 -1.13179688 10.59007812 -1.71484375 10.37890625 C-2.44832031 10.10949219 -3.18179688 9.84007812 -3.9375 9.5625 C-4.66839844 9.29566406 -5.39929688 9.02882813 -6.15234375 8.75390625 C-8 8 -8 8 -9 7 C-9.25 4.5625 -9.25 4.5625 -9 2 C-5.53001271 -0.31332486 -4.07490752 -0.33957563 0 0 Z " fill="#C6C6C7" transform="translate(113,17)"/>
<path d="M0 0 C3.3 0 6.6 0 10 0 C10 0.66 10 1.32 10 2 C7.69 2 5.38 2 3 2 C3 3.32 3 4.64 3 6 C5.31 6 7.62 6 10 6 C10 6.99 10 7.98 10 9 C7.69 9 5.38 9 3 9 C3 10.32 3 11.64 3 13 C5.64 13 8.28 13 11 13 C11 13.99 11 14.98 11 16 C7.37 16 3.74 16 0 16 C0 10.72 0 5.44 0 0 Z " fill="#DADADA" transform="translate(74,18)"/>
<path d="M0 0 C3.83225427 -0.08912219 7.26562152 0.12132271 11 1 C10.67 1.66 10.34 2.32 10 3 C9.34 3 8.68 3 8 3 C7.67 4.98 7.34 6.96 7 9 C6.34 9 5.68 9 5 9 C7.475 12.465 7.475 12.465 10 16 C10.66 14.68 11.32 13.36 12 12 C12.66 12 13.32 12 14 12 C13.54965877 13.62723299 13.08944646 15.25173664 12.625 16.875 C12.36976562 17.77992187 12.11453125 18.68484375 11.8515625 19.6171875 C11 22 11 22 9 24 C7.66666667 20 6.33333333 16 5 12 C4.01 11.67 3.02 11.34 2 11 C2.33 10.01 2.66 9.02 3 8 C3.66 8 4.32 8 5 8 C5 7.34 5 6.68 5 6 C2.525 5.01 2.525 5.01 0 4 C0 2.68 0 1.36 0 0 Z " fill="#29292D" transform="translate(24,20)"/>
<path d="M0 0 C3.63 0 7.26 0 11 0 C11 0.66 11 1.32 11 2 C8.36 2 5.72 2 3 2 C3 3.98 3 5.96 3 8 C5.31 8 7.62 8 10 8 C10 8.66 10 9.32 10 10 C7.69 10 5.38 10 3 10 C3 11.65 3 13.3 3 15 C5.64 15 8.28 15 11 15 C11 15.66 11 16.32 11 17 C7.37 17 3.74 17 0 17 C0 11.39 0 5.78 0 0 Z " fill="#DCDCDD" transform="translate(149,17)"/>
<path d="M0 0 C1.9375 1.3125 1.9375 1.3125 3 3 C3 3.99 3 4.98 3 6 C2.01 6 1.02 6 0 6 C-0.66 5.01 -1.32 4.02 -2 3 C-3.65 3.33 -5.3 3.66 -7 4 C-7.02689216 5.47906892 -7.04634621 6.95827483 -7.0625 8.4375 C-7.07410156 9.26121094 -7.08570312 10.08492187 -7.09765625 10.93359375 C-7.23267348 12.99163938 -7.23267348 12.99163938 -6 14 C-4.33382885 14.04063832 -2.66611905 14.042721 -1 14 C-0.67 13.01 -0.34 12.02 0 11 C0.99 11 1.98 11 3 11 C2.625 13.4375 2.625 13.4375 2 16 C-0.22890995 17.11445498 -1.53055106 17.16480286 -4 17.1875 C-5.051875 17.20876953 -5.051875 17.20876953 -6.125 17.23046875 C-8 17 -8 17 -10 15 C-10.30078125 12.28515625 -10.30078125 12.28515625 -10.3125 9.0625 C-10.32925781 8.00160156 -10.34601563 6.94070312 -10.36328125 5.84765625 C-10 3 -10 3 -8.69921875 1.14453125 C-5.84333479 -0.77908714 -3.32157001 -0.3558825 0 0 Z " fill="#CFCFD0" transform="translate(129,17)"/>
<path d="M0 0 C3.63 0 7.26 0 11 0 C11 0.66 11 1.32 11 2 C8.03 2 5.06 2 2 2 C2 3.98 2 5.96 2 8 C4.64 8 7.28 8 10 8 C10 8.66 10 9.32 10 10 C7.69 10 5.38 10 3 10 C3 11.65 3 13.3 3 15 C5.64 15 8.28 15 11 15 C11 15.66 11 16.32 11 17 C7.37 17 3.74 17 0 17 C0 11.39 0 5.78 0 0 Z " fill="#D0D0D1" transform="translate(192,17)"/>
<path d="M0 0 C3.63 0 7.26 0 11 0 C11 0.66 11 1.32 11 2 C8.03 2 5.06 2 2 2 C2 3.98 2 5.96 2 8 C4.64 8 7.28 8 10 8 C10 8.66 10 9.32 10 10 C7.69 10 5.38 10 3 10 C3 11.65 3 13.3 3 15 C5.64 15 8.28 15 11 15 C11 15.66 11 16.32 11 17 C7.37 17 3.74 17 0 17 C0 11.39 0 5.78 0 0 Z " fill="#D0D0D1" transform="translate(163,17)"/>
<path d="M0 0 C1.32 0.33 2.64 0.66 4 1 C4 2.65 4 4.3 4 6 C4.66 6 5.32 6 6 6 C4.66666667 8.66666667 3.33333333 11.33333333 2 14 C-0.25245881 11.31158141 -1.88213958 9.35358125 -3 6 C-2.34 6 -1.68 6 -1 6 C-0.67 4.02 -0.34 2.04 0 0 Z " fill="#D9D9D9" transform="translate(32,23)"/>
<path d="M0 0 C0.99 0 1.98 0 3 0 C3 5.61 3 11.22 3 17 C1.35 17 -0.3 17 -2 17 C-2.33 15.02 -2.66 13.04 -3 11 C-2.01 11.495 -2.01 11.495 -1 12 C-0.67 8.04 -0.34 4.08 0 0 Z " fill="#C3C3C5" transform="translate(186,17)"/>
<path d="M0 0 C2.97 0.495 2.97 0.495 6 1 C6 1.99 6 2.98 6 4 C6.66 4 7.32 4 8 4 C8.33 3.01 8.66 2.02 9 1 C9.66 1.33 10.32 1.66 11 2 C11 4.97 11 7.94 11 11 C9.9790625 10.1028125 9.9790625 10.1028125 8.9375 9.1875 C5.68325166 6.76412357 2.76063775 5.4747599 -1 4 C-0.67 2.68 -0.34 1.36 0 0 Z " fill="#19191E" transform="translate(108,19)"/>
<path d="M0 0 C0.33 0 0.66 0 1 0 C1 1.98 1 3.96 1 6 C4.43230448 5.73606499 4.43230448 5.73606499 8 5 C8.66 4.01 9.32 3.02 10 2 C10.33 6.29 10.66 10.58 11 15 C10.34 15 9.68 15 9 15 C8.67 13.02 8.34 11.04 8 9 C5.03 8.505 5.03 8.505 2 8 C2 10.31 2 12.62 2 15 C1.34 15 0.68 15 0 15 C0 10.05 0 5.1 0 0 Z " fill="#CECECF" transform="translate(206,19)"/>
<path d="M0 0 C0.33 0 0.66 0 1 0 C1 1.98 1 3.96 1 6 C4.43230448 5.73606499 4.43230448 5.73606499 8 5 C8.66 4.01 9.32 3.02 10 2 C10.33 6.29 10.66 10.58 11 15 C10.34 15 9.68 15 9 15 C8.67 13.02 8.34 11.04 8 9 C5.03 8.505 5.03 8.505 2 8 C2 10.31 2 12.62 2 15 C1.34 15 0.68 15 0 15 C0 10.05 0 5.1 0 0 Z " fill="#CECECF" transform="translate(135,19)"/>
<path d="M0 0 C2.475 0.495 2.475 0.495 5 1 C5 3.97 5 6.94 5 10 C3.35 10.33 1.7 10.66 0 11 C0 7.37 0 3.74 0 0 Z " fill="#212125" transform="translate(63,20)"/>
<path d="M0 0 C0.33 0 0.66 0 1 0 C1.125 2.375 1.125 2.375 1 5 C-1 7 -1 7 -3.09375 7.265625 C-3.8878125 7.26046875 -4.681875 7.2553125 -5.5 7.25 C-6.2940625 7.25515625 -7.088125 7.2603125 -7.90625 7.265625 C-10 7 -10 7 -12 5 C-12 3.68 -12 2.36 -12 1 C-11.01 1 -10.02 1 -9 1 C-8.67 1.99 -8.34 2.98 -8 4 C-5.62625139 4.33425735 -5.62625139 4.33425735 -3 4 C-1.22590192 2.07977297 -1.22590192 2.07977297 0 0 Z " fill="#BBBBBC" transform="translate(116,27)"/>
<path d="M0 0 C3.63 0 7.26 0 11 0 C11 0.66 11 1.32 11 2 C8.36 2 5.72 2 3 2 C3 3.98 3 5.96 3 8 C2.67 8 2.34 8 2 8 C1.67 10.97 1.34 13.94 1 17 C0.67 17 0.34 17 0 17 C0 11.39 0 5.78 0 0 Z " fill="#B5B5B6" transform="translate(149,17)"/>
<path d="M0 0 C1.98 0 3.96 0 6 0 C6.38218767 1.65614657 6.71395102 3.32457024 7 5 C6 6 6 6 2.9375 6.0625 C1.4834375 6.0315625 1.4834375 6.0315625 0 6 C0 4.02 0 2.04 0 0 Z " fill="#1F1F23" transform="translate(208,19)"/>
<path d="M0 0 C1.98 0 3.96 0 6 0 C6.38218767 1.65614657 6.71395102 3.32457024 7 5 C6 6 6 6 2.9375 6.0625 C1.4834375 6.0315625 1.4834375 6.0315625 0 6 C0 4.02 0 2.04 0 0 Z " fill="#1F1F23" transform="translate(137,19)"/>
<path d="M0 0 C0.33 0.99 0.66 1.98 1 3 C3.32891096 4.02700444 3.32891096 4.02700444 6.0625 4.6875 C6.98160156 4.93886719 7.90070313 5.19023437 8.84765625 5.44921875 C9.55792969 5.63097656 10.26820312 5.81273437 11 6 C11 7.65 11 9.3 11 11 C10.59136719 10.53980469 10.18273437 10.07960938 9.76171875 9.60546875 C7.82536346 7.84085229 6.27511002 7.16028378 3.8125 6.3125 C3.09707031 6.06113281 2.38164063 5.80976563 1.64453125 5.55078125 C1.10183594 5.36902344 0.55914062 5.18726563 0 5 C0 3.35 0 1.7 0 0 Z " fill="#D0D0D1" transform="translate(105,20)"/>
<path d="M0 0 C1.32 1.32 2.64 2.64 4 4 C3.525625 4.45375 3.05125 4.9075 2.5625 5.375 C0.90972192 6.93258204 0.90972192 6.93258204 0 9 C-1.32 9 -2.64 9 -4 9 C-2.80100302 5.9168649 -1.52299523 2.93720508 0 0 Z " fill="#C7C7C8" transform="translate(90,25)"/>
<path d="M0 0 C0.33 0.99 0.66 1.98 1 3 C1.66 3 2.32 3 3 3 C3.33 2.01 3.66 1.02 4 0 C4.66 0.33 5.32 0.66 6 1 C6 3.97 6 6.94 6 10 C2.46413986 6.82679218 0.41421969 4.83256305 0 0 Z " fill="#3E3E42" transform="translate(113,20)"/>
<path d="M0 0 C0.33 0 0.66 0 1 0 C1.33 1.98 1.66 3.96 2 6 C3.65 6.33 5.3 6.66 7 7 C7 7.33 7 7.66 7 8 C5.35 8 3.7 8 2 8 C2 10.31 2 12.62 2 15 C1.34 15 0.68 15 0 15 C0 10.05 0 5.1 0 0 Z " fill="#DFDFDF" transform="translate(206,19)"/>
<path d="M0 0 C0.33 0 0.66 0 1 0 C1.33 1.98 1.66 3.96 2 6 C3.65 6.33 5.3 6.66 7 7 C7 7.33 7 7.66 7 8 C5.35 8 3.7 8 2 8 C2 10.31 2 12.62 2 15 C1.34 15 0.68 15 0 15 C0 10.05 0 5.1 0 0 Z " fill="#DFDFDF" transform="translate(135,19)"/>
<path d="M0 0 C2.18975773 3.28463659 2.99806563 6.20696275 4 10 C3.01 10.66 2.02 11.32 1 12 C0.63597631 10.56496445 0.28413409 9.12683494 -0.0625 7.6875 C-0.25972656 6.88699219 -0.45695313 6.08648437 -0.66015625 5.26171875 C-1 3 -1 3 0 0 Z " fill="#AEAEB0" transform="translate(181,19)"/>
<path d="M0 0 C2.99332739 0.9977758 3.94766315 1.7522025 6 4 C5.67 4.99 5.34 5.98 5 7 C4.01 7.33 3.02 7.66 2 8 C1.67 7.34 1.34 6.68 1 6 C1.33 5.34 1.66 4.68 2 4 C1.34 4 0.68 4 0 4 C0 2.68 0 1.36 0 0 Z " fill="#424246" transform="translate(36,25)"/>
<path d="M0 0 C1.32 0 2.64 0 4 0 C2.92598892 2.91517292 2.22189824 4.77810176 0 7 C0 6.34 0 5.68 0 5 C-0.66 5 -1.32 5 -2 5 C-1.34 3.35 -0.68 1.7 0 0 Z " fill="#C4C4C5" transform="translate(96,17)"/>
<path d="M0 0 C1.9375 0.3125 1.9375 0.3125 4 1 C4.33 1.99 4.66 2.98 5 4 C5.66 4.33 6.32 4.66 7 5 C5.35 5.33 3.7 5.66 2 6 C1.34 4.02 0.68 2.04 0 0 Z " fill="#C8C8C9" transform="translate(87,18)"/>
<path d="M0 0 C0.33 0.66 0.66 1.32 1 2 C0.34 2.66 -0.32 3.32 -1 4 C-1.6425235 6.06874034 -1.6425235 6.06874034 -2 8 C-3.32 7.67 -4.64 7.34 -6 7 C-4.19587357 3.73539027 -3.16605307 2.11070205 0 0 Z " fill="#616164" transform="translate(43,16)"/>
<path d="M0 0 C0.33 0 0.66 0 1 0 C1.33 2.97 1.66 5.94 2 9 C0.02 9.99 0.02 9.99 -2 11 C-1.34 7.37 -0.68 3.74 0 0 Z " fill="#D9D9DA" transform="translate(68,23)"/>
<path d="M0 0 C4.875 1.75 4.875 1.75 6 4 C4.35 4.33 2.7 4.66 1 5 C0.67 3.35 0.34 1.7 0 0 Z " fill="#6E6E71" transform="translate(24,20)"/>
<path d="M0 0 C1.32 0.33 2.64 0.66 4 1 C4.33 2.32 4.66 3.64 5 5 C4.01 5 3.02 5 2 5 C1.34 3.35 0.68 1.7 0 0 Z " fill="#C0C0C1" transform="translate(127,18)"/>
</svg>
