<?xml version="1.0" encoding="UTF-8"?>
<svg xmlns="http://www.w3.org/2000/svg" width="755" height="318" viewBox="0 0 755 318" fill="none">
  <path d="M338.383 25.7472L388.554 12.8435L338.323 0L287.851 12.8435L287.971 301.928L338.503 288.723V25.687L338.383 25.7472Z" fill="url(#paint0_linear_8041_350)"></path>
  <path d="M287.851 301.929L338.293 314.622L388.493 301.929L338.293 288.724L287.851 301.929Z" fill="#000D30"></path>
  <path d="M338.502 25.7458V288.722L388.614 301.926L388.674 12.8421L338.502 25.7458Z" fill="url(#paint1_linear_8041_350)"></path>
  <path d="M569.536 73.8138L625.933 195.602H665.396L581.086 4.48291H556.211L430.603 274.798L456.591 317.179L569.536 73.8138Z" fill="url(#paint2_linear_8041_350)"></path>
  <path d="M755 292.304L623.587 4.48291H581.086L665.396 195.602H554.376L536.57 234.643H683.112L709.461 292.244L755 292.304Z" fill="url(#paint3_linear_8041_350)"></path>
  <path d="M536.57 234.643L590.019 118.18L569.536 73.6634L456.591 316.698H497.949L524.809 259.639H655.56L683.112 234.643H536.57Z" fill="url(#paint4_linear_8041_350)"></path>
  <path d="M755 291.821L709.461 291.941L683.112 234.16L655.56 259.667L682.209 316.696H727.719L755 291.821Z" fill="url(#paint5_linear_8041_350)"></path>
  <path d="M0.0301079 30.6788L45.4783 0.810871V240.837C89.9944 238.13 156.859 225.317 163.657 159.535C163.657 159.535 174.094 199.9 150.152 232.235C124.645 266.705 65.3305 290.106 0 290.106V30.6788H0.0301079Z" fill="url(#paint6_linear_8041_350)"></path>
  <path d="M91.1974 56.785V96.7593C109.726 101.843 152.287 118.175 163.747 159.834C163.747 159.834 163.867 160.466 164.108 161.669C164.168 162 164.198 162.3 164.258 162.631C166.093 172.196 170.304 204.621 150.182 232.233C125.367 266.282 64.5484 290.104 0.0300293 290.104L56.1261 314.648C56.1261 314.648 175.778 312.873 212.203 207.629C215.602 197.823 217.437 188.288 217.768 179.054C214.489 104.73 153.46 63.5527 91.1974 56.8151V56.785Z" fill="url(#paint7_linear_8041_350)"></path>
  <path d="M191.84 60.4264C166.303 26.8288 109.455 0.810871 45.4783 0.810871V240.837C53.5393 240.356 62.593 239.484 71.8873 238.04C76.2186 237.348 80.6103 236.566 84.9115 235.573C86.9568 235.092 89.2123 234.581 91.2275 234.039V56.817C153.49 63.5546 214.941 104.943 217.798 179.567C217.798 179.567 232.596 113.966 191.87 60.4264H191.84Z" fill="url(#paint8_linear_8041_350)"></path>
  <defs>
    <linearGradient id="paint0_linear_8041_350" x1="247.516" y1="133.639" x2="426.332" y2="180.441" gradientUnits="userSpaceOnUse">
      <stop stop-color="#000D30"></stop>
      <stop offset="0.06" stop-color="#000D30" stop-opacity="0.96"></stop>
      <stop offset="0.16" stop-color="#000D30" stop-opacity="0.85"></stop>
      <stop offset="0.19" stop-color="#000D30" stop-opacity="0.8"></stop>
      <stop offset="0.25" stop-color="#000D30" stop-opacity="0.72"></stop>
      <stop offset="0.37" stop-color="#000D30" stop-opacity="0.56"></stop>
      <stop offset="0.57" stop-color="#000D30" stop-opacity="0.34"></stop>
      <stop offset="0.72" stop-color="#000D30" stop-opacity="0.2"></stop>
      <stop offset="0.81" stop-color="#000D30" stop-opacity="0.15"></stop>
    </linearGradient>
    <linearGradient id="paint1_linear_8041_350" x1="290.617" y1="108.672" x2="447.778" y2="199.39" gradientUnits="userSpaceOnUse">
      <stop stop-color="#000D30"></stop>
      <stop offset="0.16" stop-color="#000D30" stop-opacity="0.98"></stop>
      <stop offset="0.32" stop-color="#000D30" stop-opacity="0.92"></stop>
      <stop offset="0.49" stop-color="#000D30" stop-opacity="0.81"></stop>
      <stop offset="0.65" stop-color="#000D30" stop-opacity="0.66"></stop>
      <stop offset="0.81" stop-color="#000D30" stop-opacity="0.47"></stop>
      <stop offset="0.97" stop-color="#000D30" stop-opacity="0.24"></stop>
      <stop offset="1" stop-color="#000D30" stop-opacity="0.2"></stop>
    </linearGradient>
    <linearGradient id="paint2_linear_8041_350" x1="413.398" y1="177.224" x2="654.658" y2="134.693" gradientUnits="userSpaceOnUse">
      <stop stop-color="#000D30" stop-opacity="0.15"></stop>
      <stop offset="0.05" stop-color="#000D30" stop-opacity="0.24"></stop>
      <stop offset="0.2" stop-color="#000D30" stop-opacity="0.47"></stop>
      <stop offset="0.36" stop-color="#000D30" stop-opacity="0.66"></stop>
      <stop offset="0.51" stop-color="#000D30" stop-opacity="0.81"></stop>
      <stop offset="0.66" stop-color="#000D30" stop-opacity="0.92"></stop>
      <stop offset="0.81" stop-color="#000D30" stop-opacity="0.98"></stop>
      <stop offset="0.8101" stop-color="#000D30" stop-opacity="0.980964"></stop>
      <stop offset="0.97" stop-color="#000D30"></stop>
    </linearGradient>
    <linearGradient id="paint3_linear_8041_350" x1="571.25" y1="263.729" x2="720.53" y2="85.8149" gradientUnits="userSpaceOnUse">
      <stop stop-color="#000D30"></stop>
      <stop offset="0.2" stop-color="#000D30" stop-opacity="0.98"></stop>
      <stop offset="0.36" stop-color="#000D30" stop-opacity="0.93"></stop>
      <stop offset="0.5" stop-color="#000D30" stop-opacity="0.84"></stop>
      <stop offset="0.64" stop-color="#000D30" stop-opacity="0.72"></stop>
      <stop offset="0.76" stop-color="#000D30" stop-opacity="0.56"></stop>
      <stop offset="0.89" stop-color="#000D30" stop-opacity="0.37"></stop>
      <stop offset="1" stop-color="#000D30" stop-opacity="0.15"></stop>
    </linearGradient>
    <linearGradient id="paint4_linear_8041_350" x1="634.746" y1="97.3953" x2="543.428" y2="348.28" gradientUnits="userSpaceOnUse">
      <stop offset="0.1" stop-color="#000D30" stop-opacity="0.15"></stop>
      <stop offset="0.9" stop-color="#000D30"></stop>
    </linearGradient>
    <linearGradient id="paint5_linear_8041_350" x1="744.021" y1="310.86" x2="655.5" y2="259.757" gradientUnits="userSpaceOnUse">
      <stop stop-color="#000D30" stop-opacity="0.15"></stop>
      <stop offset="0.12" stop-color="#000D30" stop-opacity="0.28"></stop>
      <stop offset="0.42" stop-color="#000D30" stop-opacity="0.59"></stop>
      <stop offset="0.68" stop-color="#000D30" stop-opacity="0.81"></stop>
      <stop offset="0.88" stop-color="#000D30" stop-opacity="0.95"></stop>
      <stop offset="1" stop-color="#000D30"></stop>
    </linearGradient>
    <linearGradient id="paint6_linear_8041_350" x1="-63.9768" y1="107.8" x2="191.84" y2="218.819" gradientUnits="userSpaceOnUse">
      <stop offset="0.02" stop-color="#000D30" stop-opacity="0.8"></stop>
      <stop offset="0.14" stop-color="#000D30" stop-opacity="0.76"></stop>
      <stop offset="0.32" stop-color="#000D30" stop-opacity="0.65"></stop>
      <stop offset="0.55" stop-color="#000D30" stop-opacity="0.46"></stop>
      <stop offset="0.61" stop-color="#000D30" stop-opacity="0.4"></stop>
      <stop offset="0.8" stop-color="#000D30" stop-opacity="0.28"></stop>
      <stop offset="0.96" stop-color="#000D30" stop-opacity="0.2"></stop>
    </linearGradient>
    <linearGradient id="paint7_linear_8041_350" x1="178" y1="68.4999" x2="50.2908" y2="287.276" gradientUnits="userSpaceOnUse">
      <stop stop-color="#000D30" stop-opacity="0.2"></stop>
      <stop offset="0.05" stop-color="#000D30" stop-opacity="0.29"></stop>
      <stop offset="0.18" stop-color="#000D30" stop-opacity="0.48"></stop>
      <stop offset="0.3" stop-color="#000D30" stop-opacity="0.63"></stop>
      <stop offset="0.44" stop-color="#000D30" stop-opacity="0.75"></stop>
      <stop offset="0.59" stop-color="#000D30" stop-opacity="0.83"></stop>
      <stop offset="0.76" stop-color="#000D30" stop-opacity="0.88"></stop>
      <stop offset="0.98" stop-color="#000D30"></stop>
    </linearGradient>
    <linearGradient id="paint8_linear_8041_350" x1="-19.9424" y1="149.549" x2="206.609" y2="67.1039" gradientUnits="userSpaceOnUse">
      <stop offset="0.21" stop-color="#000D30"></stop>
      <stop offset="0.34" stop-color="#000D30" stop-opacity="0.98"></stop>
      <stop offset="0.47" stop-color="#000D30" stop-opacity="0.92"></stop>
      <stop offset="0.6" stop-color="#000D30" stop-opacity="0.82"></stop>
      <stop offset="0.72" stop-color="#000D30" stop-opacity="0.68"></stop>
      <stop offset="0.83" stop-color="#000D30" stop-opacity="0.51"></stop>
      <stop offset="0.95" stop-color="#000D30" stop-opacity="0.3"></stop>
    </linearGradient>
  </defs>
</svg>
