<?xml version="1.0" encoding="UTF-8"?>
<svg version="1.1" xmlns="http://www.w3.org/2000/svg" width="172" height="48">
<path d="M0 0 C56.76 0 113.52 0 172 0 C172 15.84 172 31.68 172 48 C115.24 48 58.48 48 0 48 C0 32.16 0 16.32 0 0 Z " fill="#0B0B0D" transform="translate(0,0)"/>
<path d="M0 0 C3.375 0.875 3.375 0.875 5.375 2.875 C5.67578125 4.93359375 5.67578125 4.93359375 5.6875 7.3125 C5.70425781 8.09496094 5.72101562 8.87742187 5.73828125 9.68359375 C5.28770904 12.40156162 4.58170237 13.26182447 2.375 14.875 C-1.125 15.3125 -1.125 15.3125 -4.625 14.875 C-7.48076764 12.57196158 -7.60681881 11.02044949 -8.0625 7.375 C-7.625 3.875 -7.625 3.875 -6.0625 1.375 C-3.625 -0.125 -3.625 -0.125 0 0 Z " fill="#E6E0CB" transform="translate(49.625,13.125)"/>
<path d="M0 0 C-3.73640212 4.09224994 -7.64323423 4.29250263 -13 5 C-11.87890434 6.62493901 -11.87890434 6.62493901 -10 8 C-9.030625 8 -8.06125 8 -7.0625 8 C-3.56943552 8 -2.51181468 8.68140183 0 11 C-1.98 11.99 -3.96 12.98 -6 14 C-6 13.34 -6 12.68 -6 12 C-7.2375 12.12375 -7.2375 12.12375 -8.5 12.25 C-13.01303847 11.92764011 -16.11795056 10.20705349 -20 8 C-20 5.75 -20 5.75 -19 3 C-12.77688133 -1.42015906 -7.14882107 -2.8262781 0 0 Z " fill="#E8E8E8" transform="translate(31,15)"/>
<path d="M0 0 C6.0546875 -0.1953125 6.0546875 -0.1953125 8 0 C10 2 10 2 10.1875 5 C10 8 10 8 9 10 C9.89363605 12.60931266 9.89363605 12.60931266 11 15 C9.68 14.67 8.36 14.34 7 14 C6.67 12.68 6.34 11.36 6 10 C5.01 10 4.02 10 3 10 C3 11.65 3 13.3 3 15 C2.01 15 1.02 15 0 15 C0 10.05 0 5.1 0 0 Z " fill="#DDD6BB" transform="translate(94,13)"/>
<path d="M0 0 C6.0546875 -0.1953125 6.0546875 -0.1953125 8 0 C10 2 10 2 10.25 4.9375 C10 8 10 8 8 11 C5.375 11.1875 5.375 11.1875 3 11 C2.67 12.32 2.34 13.64 2 15 C1.34 15 0.68 15 0 15 C0 10.05 0 5.1 0 0 Z " fill="#F1EDDC" transform="translate(58,17)"/>
<path d="M0 0 C1.8125 1.1875 1.8125 1.1875 3 3 C3.42822025 5.85480169 3.40659584 7.34492892 1.875 9.8125 C-0.85987361 11.54458662 -2.83740129 11.40373601 -6 11 C-8 8 -8 8 -7.75 4.375 C-7.5025 3.26125 -7.255 2.1475 -7 1 C-4.45132831 -0.27433584 -2.82594567 -0.27570202 0 0 Z " fill="#EDDFC2" transform="translate(114,17)"/>
<path d="M0 0 C3 0.25 3 0.25 5 2.25 C5.125 4.875 5.125 4.875 5 7.25 C2.69 7.25 0.38 7.25 -2 7.25 C-2 7.91 -2 8.57 -2 9.25 C-0.02 8.92 1.96 8.59 4 8.25 C3.67 9.24 3.34 10.23 3 11.25 C0.125 11.375 0.125 11.375 -3 11.25 C-5 9.25 -5 9.25 -5.25 5.75 C-4.93427155 1.32980166 -4.46370491 0.37197541 0 0 Z " fill="#A29A8F" transform="translate(75,16.75)"/>
<path d="M0 0 C3 0.25 3 0.25 5 2.25 C5 3.57 5 4.89 5 6.25 C2.36 6.25 -0.28 6.25 -3 6.25 C-2.67 6.91 -2.34 7.57 -2 8.25 C0.31 8.25 2.62 8.25 5 8.25 C4.01 9.735 4.01 9.735 3 11.25 C0 11.5625 0 11.5625 -3 11.25 C-5 9.25 -5 9.25 -5.25 5.75 C-4.93427155 1.32980166 -4.46370491 0.37197541 0 0 Z " fill="#E3F1F3" transform="translate(142,16.75)"/>
<path d="M0 0 C2.5625 0.1875 2.5625 0.1875 4.5625 2.1875 C4.1875 5.8125 4.1875 5.8125 3.5625 9.1875 C1.1875 9.8125 1.1875 9.8125 -1.4375 10.1875 C-3.4375 8.1875 -3.4375 8.1875 -3.625 4.625 C-3.3869382 0.26053371 -3.3869382 0.26053371 0 0 Z " fill="#0F121D" transform="translate(48.4375,15.8125)"/>
<path d="M0 0 C0.66 0 1.32 0 2 0 C2.33 2.64 2.66 5.28 3 8 C3.99 8 4.98 8 6 8 C6.33 5.36 6.66 2.72 7 0 C7.66 0 8.32 0 9 0 C9 3.63 9 7.26 9 11 C2.84765625 11.09765625 2.84765625 11.09765625 1 11 C0 10 0 10 -0.09765625 7.71484375 C-0.08605469 6.79832031 -0.07445313 5.88179687 -0.0625 4.9375 C-0.05347656 4.01839844 -0.04445313 3.09929688 -0.03515625 2.15234375 C-0.02355469 1.44207031 -0.01195313 0.73179688 0 0 Z " fill="#E8EEE5" transform="translate(119,17)"/>
<path d="M0 0 C6.15234375 -0.09765625 6.15234375 -0.09765625 8 0 C9 1 9 1 9.09765625 3.28515625 C9.08605469 4.20167969 9.07445313 5.11820313 9.0625 6.0625 C9.05347656 6.98160156 9.04445313 7.90070312 9.03515625 8.84765625 C9.02355469 9.55792969 9.01195313 10.26820312 9 11 C8.34 11 7.68 11 7 11 C6.67 8.36 6.34 5.72 6 3 C5.01 3 4.02 3 3 3 C2.67 5.64 2.34 8.28 2 11 C1.34 11 0.68 11 0 11 C0 7.37 0 3.74 0 0 Z " fill="#E7F4EC" transform="translate(82,17)"/>
<path d="M0 0 C0.99 0 1.98 0 3 0 C3 0.99 3 1.98 3 3 C3.66 3 4.32 3 5 3 C5 3.66 5 4.32 5 5 C4.34 5 3.68 5 3 5 C3 7.31 3 9.62 3 12 C3.66 12 4.32 12 5 12 C5 12.66 5 13.32 5 14 C3.35 13.67 1.7 13.34 0 13 C0 10.36 0 7.72 0 5 C-0.66 5 -1.32 5 -2 5 C-2 4.34 -2 3.68 -2 3 C-1.34 3 -0.68 3 0 3 C0 2.01 0 1.02 0 0 Z " fill="#D9CEA0" transform="translate(131,14)"/>
<path d="M0 0 C6.0546875 -0.1953125 6.0546875 -0.1953125 8 0 C10 2 10 2 10.125 5.125 C10.08375 6.07375 10.0425 7.0225 10 8 C8 6 8 6 7 3 C5.35 2.67 3.7 2.34 2 2 C1.67 6.29 1.34 10.58 1 15 C0.67 15 0.34 15 0 15 C0 10.05 0 5.1 0 0 Z " fill="#DBE9EA" transform="translate(94,13)"/>
<path d="M0 0 C3.375 1 3.375 1 4.5859375 3.0625 C4.84632812 3.701875 5.10671875 4.34125 5.375 5 C4.43527344 4.85691406 4.43527344 4.85691406 3.4765625 4.7109375 C2.65929688 4.60007812 1.84203125 4.48921875 1 4.375 C0.18789063 4.25898438 -0.62421875 4.14296875 -1.4609375 4.0234375 C-2.17507812 4.01570313 -2.88921875 4.00796875 -3.625 4 C-5.98453094 6.35953094 -6.11641413 7.77895617 -6.625 11 C-6.955 11 -7.285 11 -7.625 11 C-8.10445205 4.76712329 -8.10445205 4.76712329 -6.0625 1.5 C-3.625 0 -3.625 0 0 0 Z " fill="#D3D1CA" transform="translate(49.625,13)"/>
<path d="M0 0 C0.99 0.33 1.98 0.66 3 1 C2.67 1.66 2.34 2.32 2 3 C3.98 3 5.96 3 8 3 C8.33 2.34 8.66 1.68 9 1 C9 1.99 9 2.98 9 4 C6.69 4 4.38 4 2 4 C2.33 4.66 2.66 5.32 3 6 C4.98 6 6.96 6 9 6 C8.67 6.99 8.34 7.98 8 9 C5.125 9.125 5.125 9.125 2 9 C0 7 0 7 -0.125 3.375 C-0.08375 2.26125 -0.0425 1.1475 0 0 Z " fill="#EBF1EF" transform="translate(70,19)"/>
<path d="M0 0 C1.98 0 3.96 0 6 0 C6 0.66 6 1.32 6 2 C5.01 2.495 5.01 2.495 4 3 C3.53476937 4.89533342 3.53476937 4.89533342 3.375 7.0625 C3.25125 8.361875 3.1275 9.66125 3 11 C2.01 11 1.02 11 0 11 C0 7.37 0 3.74 0 0 Z " fill="#D7DCD6" transform="translate(149,17)"/>
<path d="M0 0 C3.0625 0.1875 3.0625 0.1875 5.0625 2.1875 C4.6875 4.3125 4.6875 4.3125 4.0625 6.1875 C3.7325 5.8575 3.4025 5.5275 3.0625 5.1875 C1.06291636 5.14669217 -0.93795254 5.14495644 -2.9375 5.1875 C-3.5 3.25 -3.5 3.25 -3.9375 1.1875 C-2.9375 0.1875 -2.9375 0.1875 0 0 Z " fill="#AEACA3" transform="translate(141.9375,16.8125)"/>
<path d="M0 0 C0.33 0 0.66 0 1 0 C1 2.64 1 5.28 1 8 C3.44480079 7.81171228 3.44480079 7.81171228 6 7 C7.36020151 5.03241727 7.36020151 5.03241727 8 3 C8.04254356 4.99954746 8.04080783 7.00041636 8 9 C7 10 7 10 4.0625 10.25 C3.051875 10.1675 2.04125 10.085 1 10 C-1.56687367 6.1496895 -0.83288724 4.41430237 0 0 Z " fill="#CCE4F1" transform="translate(107,18)"/>
<path d="M0 0 C2.0625 0.4375 2.0625 0.4375 4 1 C4 2.65 4 4.3 4 6 C2.0625 6.5625 2.0625 6.5625 0 7 C-1 6 -1 6 -1.125 3.5 C-1 1 -1 1 0 0 Z " fill="#121021" transform="translate(110,19)"/>
<path d="M0 0 C2.0625 0.4375 2.0625 0.4375 4 1 C4 2.65 4 4.3 4 6 C2.0625 6.5625 2.0625 6.5625 0 7 C-1 6 -1 6 -1.125 3.5 C-1 1 -1 1 0 0 Z " fill="#2A1513" transform="translate(61,19)"/>
<path d="M0 0 C0.66 0.33 1.32 0.66 2 1 C2.3669579 7.48292295 2.3669579 7.48292295 0.625 9.9375 C-1 11 -1 11 -3 11 C-2.690625 10.29875 -2.38125 9.5975 -2.0625 8.875 C-0.96697322 5.91063343 -0.43577008 3.12301892 0 0 Z " fill="#EAF0E6" transform="translate(53,17)"/>
<path d="M0 0 C0.66 0 1.32 0 2 0 C2 3.63 2 7.26 2 11 C1.01 10.67 0.02 10.34 -1 10 C-0.67 6.7 -0.34 3.4 0 0 Z " fill="#F1F7E7" transform="translate(126,17)"/>
<path d="M0 0 C0 2.97 0 5.94 0 9 C-0.99 8.67 -1.98 8.34 -3 8 C-3 5.69 -3 3.38 -3 1 C-1 0 -1 0 0 0 Z " fill="#090A26" transform="translate(137,18)"/>
<path d="M0 0 C0.99 0.495 0.99 0.495 2 1 C2 2.98 2 4.96 2 7 C2.99 7 3.98 7 5 7 C5 7.66 5 8.32 5 9 C3.35 8.67 1.7 8.34 0 8 C0 5.36 0 2.72 0 0 Z " fill="#DDEBED" transform="translate(131,19)"/>
<path d="M0 0 C2.09350689 3.4019487 2.17942163 6.05272412 2 10 C1.01 10.495 1.01 10.495 0 11 C-1.76062164 7.67438135 -2.10784228 6.40826005 -1.125 2.6875 C-0.568125 1.3571875 -0.568125 1.3571875 0 0 Z " fill="#492C0B" transform="translate(104,16)"/>
<path d="M0 0 C1.2065625 0.0309375 1.2065625 0.0309375 2.4375 0.0625 C2.4375 3.0325 2.4375 6.0025 2.4375 9.0625 C1.7775 8.7325 1.1175 8.4025 0.4375 8.0625 C0.4375 6.4125 0.4375 4.7625 0.4375 3.0625 C-0.8825 2.4025 -2.2025 1.7425 -3.5625 1.0625 C-2.5625 0.0625 -2.5625 0.0625 0 0 Z " fill="#C7DEEC" transform="translate(63.5625,16.9375)"/>
<path d="M0 0 C1.65 0 3.3 0 5 0 C5 1.32 5 2.64 5 4 C3.35 4 1.7 4 0 4 C0 2.68 0 1.36 0 0 Z " fill="#0C172B" transform="translate(97,16)"/>
<path d="M0 0 C1.32 0.33 2.64 0.66 4 1 C3.360625 1.556875 2.72125 2.11375 2.0625 2.6875 C-0.19680987 5.22066561 -0.63149047 6.68341424 -1 10 C-1.33 10 -1.66 10 -2 10 C-2.25 3.375 -2.25 3.375 0 0 Z " fill="#CBE4EE" transform="translate(44,14)"/>
<path d="M0 0 C2.64 0 5.28 0 8 0 C6.8125 1.5625 6.8125 1.5625 5 3 C2.3125 2.6875 2.3125 2.6875 0 2 C0 1.34 0 0.68 0 0 Z " fill="#433C32" transform="translate(139,23)"/>
<path d="M0 0 C-2 2 -2 2 -5.125 2.125 C-6.548125 2.063125 -6.548125 2.063125 -8 2 C-8.33 1.34 -8.66 0.68 -9 0 C-3.375 -1.125 -3.375 -1.125 0 0 Z " fill="#E6E9E7" transform="translate(147,26)"/>
</svg>
