<?xml version="1.0" encoding="UTF-8"?>
<svg version="1.1" xmlns="http://www.w3.org/2000/svg" width="196" height="60">
<path d="M0 0 C64.68 0 129.36 0 196 0 C196 19.8 196 39.6 196 60 C131.32 60 66.64 60 0 60 C0 40.2 0 20.4 0 0 Z " fill="#22262B" transform="translate(0,0)"/>
<path d="M0 0 C0.87100342 -0.00945648 1.74200684 -0.01891296 2.6394043 -0.02865601 C3.57695557 -0.02258331 4.51450684 -0.01651062 5.48046875 -0.01025391 C6.44573486 -0.01312408 7.41100098 -0.01599426 8.40551758 -0.01895142 C10.44645779 -0.02099302 12.48741752 -0.01545648 14.52832031 -0.00292969 C17.65604315 0.01312239 20.78247371 -0.00277536 23.91015625 -0.02197266 C25.89192994 -0.01999024 27.87370283 -0.0161466 29.85546875 -0.01025391 C30.79302002 -0.0163266 31.73057129 -0.02239929 32.6965332 -0.02865601 C33.56753662 -0.01919952 34.43854004 -0.00974304 35.3359375 0 C36.10188232 0.00238678 36.86782715 0.00477356 37.65698242 0.00723267 C40.25978338 0.50029392 41.13088311 1.24659201 42.66796875 3.38818359 C43.04891968 5.39916992 43.04891968 5.39916992 43.05615234 7.72021484 C43.06560883 8.59121826 43.07506531 9.46222168 43.08480835 10.35961914 C43.07873566 11.29717041 43.07266296 12.23472168 43.06640625 13.20068359 C43.06927643 14.16594971 43.07214661 15.13121582 43.07510376 16.12573242 C43.07714536 18.16667263 43.07160882 20.20763237 43.05908203 22.24853516 C43.04302995 25.37625799 43.0589277 28.50268855 43.078125 31.63037109 C43.07614259 33.61214479 43.07229895 35.59391767 43.06640625 37.57568359 C43.07551529 38.9820105 43.07551529 38.9820105 43.08480835 40.41674805 C43.07535187 41.28775146 43.06589539 42.15875488 43.05615234 43.05615234 C43.05376556 43.82209717 43.05137878 44.58804199 43.04891968 45.37719727 C42.55585842 47.97999822 41.80956034 48.85109795 39.66796875 50.38818359 C37.65698242 50.76913452 37.65698242 50.76913452 35.3359375 50.77636719 C34.46493408 50.78582367 33.59393066 50.79528015 32.6965332 50.80502319 C31.75898193 50.7989505 30.82143066 50.79287781 29.85546875 50.78662109 C28.40756958 50.79092636 28.40756958 50.79092636 26.93041992 50.7953186 C24.88947971 50.7973602 22.84851998 50.79182366 20.80761719 50.77929688 C17.67989435 50.7632448 14.55346379 50.77914255 11.42578125 50.79833984 C9.44400756 50.79635743 7.46223467 50.79251379 5.48046875 50.78662109 C4.54291748 50.79269379 3.60536621 50.79876648 2.6394043 50.80502319 C1.33289917 50.79083847 1.33289917 50.79083847 0 50.77636719 C-0.76594482 50.77398041 -1.53188965 50.77159363 -2.32104492 50.76913452 C-4.92384588 50.27607327 -5.79494561 49.52977518 -7.33203125 47.38818359 C-7.71298218 45.37719727 -7.71298218 45.37719727 -7.72021484 43.05615234 C-7.72967133 42.18514893 -7.73912781 41.31414551 -7.74887085 40.41674805 C-7.74279816 39.47919678 -7.73672546 38.54164551 -7.73046875 37.57568359 C-7.73333893 36.61041748 -7.73620911 35.64515137 -7.73916626 34.65063477 C-7.74120786 32.60969455 -7.73567132 30.56873482 -7.72314453 28.52783203 C-7.70709245 25.40010919 -7.7229902 22.27367864 -7.7421875 19.14599609 C-7.74020509 17.1642224 -7.73636145 15.18244952 -7.73046875 13.20068359 C-7.73654144 12.26313232 -7.74261414 11.32558105 -7.74887085 10.35961914 C-7.73941437 9.48861572 -7.72995789 8.6176123 -7.72021484 7.72021484 C-7.71782806 6.95427002 -7.71544128 6.1883252 -7.71298218 5.39916992 C-6.87262661 0.96305116 -4.17729285 0.01301697 0 0 Z " fill="#D5B958" transform="translate(19.33203125,2.61181640625)"/>
<path d="M0 0 C0.33 1.65 0.66 3.3 1 5 C2.32 5 3.64 5 5 5 C4.67 6.65 4.34 8.3 4 10 C3.01 10 2.02 10 1 10 C1.33 10.99 1.66 11.98 2 13 C2.66 13 3.32 13 4 13 C3.67 13.99 3.34 14.98 3 16 C1.35 15.67 -0.3 15.34 -2 15 C-2 15.66 -2 16.32 -2 17 C-4.31 16.67 -6.62 16.34 -9 16 C-9 16.66 -9 17.32 -9 18 C-5.37 17.67 -1.74 17.34 2 17 C6 26.625 6 26.625 6 30 C5.34 30.33 4.68 30.66 4 31 C4.33 32.65 4.66 34.3 5 36 C1.80874596 37.06375135 -0.52470971 37.13335484 -3.875 37.125 C-5.41800781 37.12886719 -5.41800781 37.12886719 -6.9921875 37.1328125 C-9.774648 37.00995061 -12.29239874 36.62944236 -15 36 C-15 35.67 -15 35.34 -15 35 C-12.525 34.505 -12.525 34.505 -10 34 C-10.61488281 33.63648438 -11.22976562 33.27296875 -11.86328125 32.8984375 C-20.30588235 27.64705882 -20.30588235 27.64705882 -22 22 C-22.31549685 19.19207806 -22.23792623 16.85511476 -22 14 C-21.34 13.34 -20.68 12.68 -20 12 C-20 12.66 -20 13.32 -20 14 C-18.68 13.67 -17.36 13.34 -16 13 C-16 14.32 -16 15.64 -16 17 C-17.65 17.33 -19.3 17.66 -21 18 C-21 18.99 -21 19.98 -21 21 C-20.13375 20.5359375 -20.13375 20.5359375 -19.25 20.0625 C-17.15705816 19.07416636 -15.25464725 18.4831387 -13 18 C-13 16.35 -13 14.7 -13 13 C-12.34 13 -11.68 13 -11 13 C-11 12.34 -11 11.68 -11 11 C-11.825 10.34 -12.65 9.68 -13.5 9 C-14.325 8.34 -15.15 7.68 -16 7 C-16 6.34 -16 5.68 -16 5 C-14.35 4.67 -12.7 4.34 -11 4 C-10.87625 3.360625 -10.7525 2.72125 -10.625 2.0625 C-10.41875 1.381875 -10.2125 0.70125 -10 0 C-6.7169902 -1.6415049 -3.57454967 -0.51888624 0 0 Z " fill="#807060" transform="translate(43,10)"/>
<path d="M0 0 C2.64 0 5.28 0 8 0 C8 0.99 8 1.98 8 3 C8.66 3 9.32 3 10 3 C10.33 2.01 10.66 1.02 11 0 C12.32 0 13.64 0 15 0 C15 1.98 15 3.96 15 6 C16.98 6 18.96 6 21 6 C21 6.99 21 7.98 21 9 C21.66 9 22.32 9 23 9 C23 12.63 23 16.26 23 20 C22.01 20 21.02 20 20 20 C20 16.37 20 12.74 20 9 C18.68 9 17.36 9 16 9 C15.67 12.63 15.34 16.26 15 20 C13.68 20 12.36 20 11 20 C10.67 19.01 10.34 18.02 10 17 C9.34 17 8.68 17 8 17 C8 17.99 8 18.98 8 20 C5.36 20 2.72 20 0 20 C-2.8265114 12.93372151 -2.8265114 7.06627849 0 0 Z " fill="#33292F" transform="translate(120,18)"/>
<path d="M0 0 C0.33 1.65 0.66 3.3 1 5 C2.32 5 3.64 5 5 5 C4.67 6.65 4.34 8.3 4 10 C3.01 10 2.02 10 1 10 C1.33 10.99 1.66 11.98 2 13 C2.66 13 3.32 13 4 13 C3.67 13.99 3.34 14.98 3 16 C1.35 15.67 -0.3 15.34 -2 15 C-2 15.66 -2 16.32 -2 17 C-3.32 17 -4.64 17 -6 17 C-6 16.34 -6 15.68 -6 15 C-7.32 14.67 -8.64 14.34 -10 14 C-10 12.68 -10 11.36 -10 10 C-10.61875 9.9175 -11.2375 9.835 -11.875 9.75 C-14 9 -14 9 -15.25 6.9375 C-15.62125 5.9784375 -15.62125 5.9784375 -16 5 C-14.35 4.67 -12.7 4.34 -11 4 C-10.814375 3.0409375 -10.814375 3.0409375 -10.625 2.0625 C-10.41875 1.381875 -10.2125 0.70125 -10 0 C-6.7169902 -1.6415049 -3.57454967 -0.51888624 0 0 Z " fill="#645048" transform="translate(43,10)"/>
<path d="M0 0 C1.32 1.65 2.64 3.3 4 5 C3.34 5 2.68 5 2 5 C2 5.66 2 6.32 2 7 C4.64 7 7.28 7 10 7 C10.33 8.98 10.66 10.96 11 13 C10.07767578 12.98259766 10.07767578 12.98259766 9.13671875 12.96484375 C7.92435547 12.95130859 7.92435547 12.95130859 6.6875 12.9375 C5.88699219 12.92589844 5.08648437 12.91429687 4.26171875 12.90234375 C1.83138666 12.90342145 1.83138666 12.90342145 -1 14 C-2.21869929 16.50447516 -2.21869929 16.50447516 -3 19 C-4.75 18.9375 -4.75 18.9375 -7 18 C-10.79248204 12.83801055 -11.64630733 9.35535542 -11 3 C-10.34 2.34 -9.68 1.68 -9 1 C-9 1.66 -9 2.32 -9 3 C-7.68 2.67 -6.36 2.34 -5 2 C-5 3.32 -5 4.64 -5 6 C-6.65 6.33 -8.3 6.66 -10 7 C-10 7.99 -10 8.98 -10 10 C-9.4225 9.690625 -8.845 9.38125 -8.25 9.0625 C-6.15705816 8.07416636 -4.25464725 7.4831387 -2 7 C-2 5.35 -2 3.7 -2 2 C-1.34 2 -0.68 2 0 2 C0 1.34 0 0.68 0 0 Z " fill="#847465" transform="translate(32,21)"/>
<path d="M0 0 C3.3 0 6.6 0 10 0 C10.97422421 4.32988536 10.84562214 7.7250188 10.19140625 12.03125 C9.92219009 14.80033051 10.39291477 17.30184343 11 20 C10.01 20 9.02 20 8 20 C6.74335022 17.09399739 6 15.20395416 6 12 C5.01 12 4.02 12 3 12 C3 14.64 3 17.28 3 20 C2.01 20 1.02 20 0 20 C0 13.4 0 6.8 0 0 Z " fill="#E6F4FA" transform="translate(77,18)"/>
<path d="M0 0 C2.64 0 5.28 0 8 0 C8.0544452 2.20805524 8.09299283 4.41650554 8.125 6.625 C8.14820312 7.85476562 8.17140625 9.08453125 8.1953125 10.3515625 C8.0030428 13.94316041 7.30258556 16.66661175 6 20 C4.02 20 2.04 20 0 20 C0 19.01 0 18.02 0 17 C1.32 17 2.64 17 4 17 C4 16.01 4 15.02 4 14 C2.68 14 1.36 14 0 14 C0 13.01 0 12.02 0 11 C-0.66 11 -1.32 11 -2 11 C-2.79953138 7.71303767 -3.09658936 6.28976808 -2 3 C-1.34 3 -0.68 3 0 3 C0 2.01 0 1.02 0 0 Z " fill="#F0FAF7" transform="translate(107,24)"/>
<path d="M0 0 C1.32 0 2.64 0 4 0 C4 1.98 4 3.96 4 6 C5.98 6 7.96 6 10 6 C10 6.99 10 7.98 10 9 C10.66 9 11.32 9 12 9 C12 12.63 12 16.26 12 20 C11.01 20 10.02 20 9 20 C9 16.37 9 12.74 9 9 C7.68 9 6.36 9 5 9 C4.67 12.63 4.34 16.26 4 20 C2.68 20 1.36 20 0 20 C0 13.4 0 6.8 0 0 Z " fill="#CBE4EB" transform="translate(131,18)"/>
<path d="M0 0 C2.31 0 4.62 0 7 0 C7 0.99 7 1.98 7 3 C7.66 3 8.32 3 9 3 C9 4.98 9 6.96 9 9 C6.69 9 4.38 9 2 9 C2 9.66 2 10.32 2 11 C3.65 11 5.3 11 7 11 C7 11.99 7 12.98 7 14 C4.69 14 2.38 14 0 14 C0 13.01 0 12.02 0 11 C-0.66 11 -1.32 11 -2 11 C-2.79953138 7.71303767 -3.09658936 6.28976808 -2 3 C-1.34 3 -0.68 3 0 3 C0 2.01 0 1.02 0 0 Z " fill="#DBDDD7" transform="translate(148,24)"/>
<path d="M0 0 C0.99 0 1.98 0 3 0 C3.33 2.97 3.66 5.94 4 9 C4.66 9 5.32 9 6 9 C6 8.01 6 7.02 6 6 C7.32 6 8.64 6 10 6 C10 6.99 10 7.98 10 9 C9.34 9 8.68 9 8 9 C8 9.99 8 10.98 8 12 C7.34 12 6.68 12 6 12 C6 12.66 6 13.32 6 14 C6.66 14 7.32 14 8 14 C8 14.99 8 15.98 8 17 C8.99 17 9.98 17 11 17 C11 17.99 11 18.98 11 20 C9.35 20 7.7 20 6 20 C6 19.01 6 18.02 6 17 C5.34 17 4.68 17 4 17 C3.67 17.99 3.34 18.98 3 20 C2.01 20 1.02 20 0 20 C0 13.4 0 6.8 0 0 Z " fill="#EBEBDF" transform="translate(173,18)"/>
<path d="M0 0 C0.99 0 1.98 0 3 0 C3.33 3.63 3.66 7.26 4 11 C4.99 11 5.98 11 7 11 C7.33 7.37 7.66 3.74 8 0 C9.32 0 10.64 0 12 0 C12 4.62 12 9.24 12 14 C8.7 14 5.4 14 2 14 C2 13.01 2 12.02 2 11 C1.34 11 0.68 11 0 11 C0 7.37 0 3.74 0 0 Z " fill="#DDE3DE" transform="translate(90,24)"/>
<path d="M0 0 C2.64 0 5.28 0 8 0 C8.33 1.98 8.66 3.96 9 6 C8.01 6 7.02 6 6 6 C6 5.01 6 4.02 6 3 C4.68 3 3.36 3 2 3 C2 7.62 2 12.24 2 17 C3.32 17 4.64 17 6 17 C6 16.01 6 15.02 6 14 C6.99 14 7.98 14 9 14 C8.67 15.98 8.34 17.96 8 20 C5.36 20 2.72 20 0 20 C-2.8265114 12.93372151 -2.8265114 7.06627849 0 0 Z " fill="#EDF4EF" transform="translate(120,18)"/>
<path d="M0 0 C2.31 0 4.62 0 7 0 C7.33 1.98 7.66 3.96 8 6 C7.01 6 6.02 6 5 6 C5 5.01 5 4.02 5 3 C4.01 3 3.02 3 2 3 C2 3.99 2 4.98 2 6 C1.34 6 0.68 6 0 6 C0 6.66 0 7.32 0 8 C0.66 8 1.32 8 2 8 C2 8.99 2 9.98 2 11 C2.99 11 3.98 11 5 11 C5 10.01 5 9.02 5 8 C5.99 8 6.98 8 8 8 C7.67 9.98 7.34 11.96 7 14 C4.69 14 2.38 14 0 14 C0 13.01 0 12.02 0 11 C-0.66 11 -1.32 11 -2 11 C-2.79953138 7.71303767 -3.09658936 6.28976808 -2 3 C-1.34 3 -0.68 3 0 3 C0 2.01 0 1.02 0 0 Z " fill="#F2F3ED" transform="translate(162,24)"/>
<path d="M0 0 C1.32 0.66 2.64 1.32 4 2 C4 2.99 4 3.98 4 5 C3.01 5.495 3.01 5.495 2 6 C2.33 7.65 2.66 9.3 3 11 C-0.19125404 12.06375135 -2.52470971 12.13335484 -5.875 12.125 C-7.41800781 12.12886719 -7.41800781 12.12886719 -8.9921875 12.1328125 C-11.774648 12.00995061 -14.29239874 11.62944236 -17 11 C-17 10.67 -17 10.34 -17 10 C-15.02 10 -13.04 10 -11 10 C-11 9.34 -11 8.68 -11 8 C-7.125 9.875 -7.125 9.875 -6 11 C-6.12375 9.8553125 -6.12375 9.8553125 -6.25 8.6875 C-6 6 -6 6 -4 4.1875 C-3.34 3.795625 -2.68 3.40375 -2 3 C-2 3.66 -2 4.32 -2 5 C-1.34 5 -0.68 5 0 5 C0 3.35 0 1.7 0 0 Z " fill="#8D7440" transform="translate(45,35)"/>
<path d="M0 0 C3.3 0 6.6 0 10 0 C10.97422421 4.32988536 10.84562214 7.7250188 10.19140625 12.03125 C9.92219009 14.80033051 10.39291477 17.30184343 11 20 C10.01 20 9.02 20 8 20 C8 14.39 8 8.78 8 3 C6.35 3 4.7 3 3 3 C3 4.98 3 6.96 3 9 C2.01 9.33 1.02 9.66 0 10 C0 6.7 0 3.4 0 0 Z " fill="#FCF9F1" transform="translate(77,18)"/>
<path d="M0 0 C0.33 0.66 0.66 1.32 1 2 C2.32 1.67 3.64 1.34 5 1 C5 2.32 5 3.64 5 5 C3.35 5.33 1.7 5.66 0 6 C0 6.99 0 7.98 0 9 C0.8971875 8.505 0.8971875 8.505 1.8125 8 C4 7 4 7 7 7 C7 8.98 7 10.96 7 13 C6.34 13 5.68 13 5 13 C5 13.99 5 14.98 5 16 C4.01 16 3.02 16 2 16 C-1.00974609 10.98375652 -1.37937519 7.69062784 -1 2 C-0.67 1.34 -0.34 0.68 0 0 Z " fill="#87745E" transform="translate(22,22)"/>
<path d="M0 0 C2.64 0 5.28 0 8 0 C8.05398987 2.27057377 8.09278742 4.54151288 8.125 6.8125 C8.14820312 8.07707031 8.17140625 9.34164062 8.1953125 10.64453125 C8 14 8 14 6 17 C6 15.02 6 13.04 6 11 C5.34 11 4.68 11 4 11 C4.33 8.36 4.66 5.72 5 3 C3.35 3 1.7 3 0 3 C0 2.01 0 1.02 0 0 Z " fill="#F3FAFC" transform="translate(107,24)"/>
<path d="M0 0 C0.99 0 1.98 0 3 0 C3 3.96 3 7.92 3 12 C3.66 12 4.32 12 5 12 C5 12.66 5 13.32 5 14 C4.01 14 3.02 14 2 14 C2 15.98 2 17.96 2 20 C1.34 20 0.68 20 0 20 C0 13.4 0 6.8 0 0 Z " fill="#FBF9F0" transform="translate(173,18)"/>
<path d="M0 0 C0.99 0 1.98 0 3 0 C3.33 3.63 3.66 7.26 4 11 C5.32 11 6.64 11 8 11 C8 11.99 8 12.98 8 14 C6.02 14 4.04 14 2 14 C2 13.01 2 12.02 2 11 C1.34 11 0.68 11 0 11 C0 7.37 0 3.74 0 0 Z " fill="#EDF6F8" transform="translate(90,24)"/>
<path d="M0 0 C-0.99 1.485 -0.99 1.485 -2 3 C-2 2.34 -2 1.68 -2 1 C-2.66 1 -3.32 1 -4 1 C-4.33 2.32 -4.66 3.64 -5 5 C-5.61875 5.12375 -6.2375 5.2475 -6.875 5.375 C-9.19120832 5.87197356 -9.19120832 5.87197356 -11 8 C-11.625 5.6875 -11.625 5.6875 -12 3 C-8.61326653 -2.08010021 -5.54065966 -0.94086673 0 0 Z " fill="#705E54" transform="translate(41,34)"/>
<path d="M0 0 C0 0.66 0 1.32 0 2 C-1.32 2 -2.64 2 -4 2 C-4 3.32 -4 4.64 -4 6 C-6.31 5.67 -8.62 5.34 -11 5 C-10.625 2.5625 -10.625 2.5625 -10 0 C-6.7169902 -1.6415049 -3.57454967 -0.51888624 0 0 Z " fill="#887966" transform="translate(43,10)"/>
<path d="M0 0 C0.66 0 1.32 0 2 0 C2 3.63 2 7.26 2 11 C-4 9 -4 9 -6 8 C-5.67 6.68 -5.34 5.36 -5 4 C-4.0409375 3.8453125 -4.0409375 3.8453125 -3.0625 3.6875 C-2.381875 3.460625 -1.70125 3.23375 -1 3 C-0.67 2.01 -0.34 1.02 0 0 Z " fill="#85776A" transform="translate(37,35)"/>
<path d="M0 0 C4.67692308 1.47692308 4.67692308 1.47692308 6.3125 4.125 C6.539375 4.74375 6.76625 5.3625 7 6 C2.6463278 9.1292019 -0.75984624 9.66192556 -6 10 C-6.99 9.67 -7.98 9.34 -9 9 C-9 8.34 -9 7.68 -9 7 C-8.01 6.67 -7.02 6.34 -6 6 C-6 6.66 -6 7.32 -6 8 C-4.68 8 -3.36 8 -2 8 C-2 7.34 -2 6.68 -2 6 C-0.35 6 1.3 6 3 6 C3.33 5.34 3.66 4.68 4 4 C3.34 4 2.68 4 2 4 C1.34 2.68 0.68 1.36 0 0 Z " fill="#C6BDAC" transform="translate(43,19)"/>
<path d="M0 0 C0.99 0 1.98 0 3 0 C3 0.99 3 1.98 3 3 C3.99 3 4.98 3 6 3 C6.33 2.01 6.66 1.02 7 0 C7.33 2.31 7.66 4.62 8 7 C7.01 7.495 7.01 7.495 6 8 C6 7.01 6 6.02 6 5 C5.01 5 4.02 5 3 5 C3 5.99 3 6.98 3 8 C2.01 8 1.02 8 0 8 C0 7.01 0 6.02 0 5 C-0.66 5 -1.32 5 -2 5 C-2 4.34 -2 3.68 -2 3 C-1.34 3 -0.68 3 0 3 C0 2.01 0 1.02 0 0 Z " fill="#3E3729" transform="translate(164,27)"/>
<path d="M0 0 C0.99 0.33 1.98 0.66 3 1 C2.67 1.66 2.34 2.32 2 3 C1.34 3 0.68 3 0 3 C0.20625 3.94875 0.4125 4.8975 0.625 5.875 C0.74875 6.90625 0.8725 7.9375 1 9 C0.34 9.66 -0.32 10.32 -1 11 C-1 10.34 -1 9.68 -1 9 C-3.31 9.66 -5.62 10.32 -8 11 C-8 10.01 -8 9.02 -8 8 C-6.35 7.67 -4.7 7.34 -3 7 C-3.0928125 5.824375 -3.0928125 5.824375 -3.1875 4.625 C-3.125625 3.75875 -3.06375 2.8925 -3 2 C-2.01 1.34 -1.02 0.68 0 0 Z " fill="#C1B489" transform="translate(30,20)"/>
<path d="M0 0 C1.65 0 3.3 0 5 0 C5 0.99 5 1.98 5 3 C5.66 3 6.32 3 7 3 C7 6.63 7 10.26 7 14 C6.01 14 5.02 14 4 14 C4 10.04 4 6.08 4 2 C2.68 2 1.36 2 0 2 C0 1.34 0 0.68 0 0 Z " fill="#FBFAEF" transform="translate(136,24)"/>
<path d="M0 0 C0.0270043 1.45823212 0.04639787 2.91660675 0.0625 4.375 C0.07410156 5.18710937 0.08570313 5.99921875 0.09765625 6.8359375 C0 9 0 9 -1 11 C-1.99 10.67 -2.98 10.34 -4 10 C-5.1875 6.9375 -5.1875 6.9375 -6 4 C-1.125 0 -1.125 0 0 0 Z " fill="#F0E15D" transform="translate(51,24)"/>
<path d="M0 0 C1.32 0.66 2.64 1.32 4 2 C4 2.99 4 3.98 4 5 C3.01 5.495 3.01 5.495 2 6 C1.67 6.99 1.34 7.98 1 9 C-0.32 8.34 -1.64 7.68 -3 7 C-3.33 7.99 -3.66 8.98 -4 10 C-4.99 10.495 -4.99 10.495 -6 11 C-6.25 8.6875 -6.25 8.6875 -6 6 C-4 4.1875 -4 4.1875 -2 3 C-2 3.66 -2 4.32 -2 5 C-1.34 5 -0.68 5 0 5 C0 3.35 0 1.7 0 0 Z " fill="#624C3F" transform="translate(45,35)"/>
<path d="M0 0 C0.33 0.66 0.66 1.32 1 2 C1.66 2 2.32 2 3 2 C3.08159574 6.16138263 2.98248524 9.9472484 2 14 C0.11638447 11.17457671 -0.31902686 10.18940682 -0.6875 7 C-0.77386719 6.319375 -0.86023438 5.63875 -0.94921875 4.9375 C-1 3 -1 3 0 0 Z " fill="#4F2F30" transform="translate(87,24)"/>
<path d="M0 0 C4.17645661 -0.34803805 5.82586157 0.33781938 9 3 C10.31836295 3.69580267 11.64791086 4.37224433 13 5 C6.78374836 6.34076016 6.78374836 6.34076016 3.125 4.75 C1 3 1 3 0 0 Z " fill="#7E6E5F" transform="translate(27,15)"/>
<path d="M0 0 C1.32 0 2.64 0 4 0 C4.125 5.75 4.125 5.75 3 8 C2.01 8 1.02 8 0 8 C-0.79953138 4.71303767 -1.09658936 3.28976808 0 0 Z " fill="#463430" transform="translate(108,27)"/>
<path d="M0 0 C0.66 0 1.32 0 2 0 C2 2.97 2 5.94 2 9 C0.02 9 -1.96 9 -4 9 C-4 8.01 -4 7.02 -4 6 C-2.68 6 -1.36 6 0 6 C0 4.02 0 2.04 0 0 Z " fill="#E9EAE1" transform="translate(111,35)"/>
<path d="M0 0 C0.99 0 1.98 0 3 0 C2.67 1.98 2.34 3.96 2 6 C-0.31 6 -2.62 6 -5 6 C-5 5.01 -5 4.02 -5 3 C-3.35 3 -1.7 3 0 3 C0 2.01 0 1.02 0 0 Z " fill="#F9F8F0" transform="translate(126,32)"/>
<path d="M0 0 C0.33 0.66 0.66 1.32 1 2 C2.32 1.67 3.64 1.34 5 1 C5 2.32 5 3.64 5 5 C3.35 5.33 1.7 5.66 0 6 C-0.33 7.32 -0.66 8.64 -1 10 C-1.125 2.25 -1.125 2.25 0 0 Z " fill="#998564" transform="translate(22,22)"/>
<path d="M0 0 C1.32 0.66 2.64 1.32 4 2 C3 5 3 5 0 7 C-0.99 7 -1.98 7 -3 7 C-3 6.34 -3 5.68 -3 5 C-2.34 5 -1.68 5 -1 5 C-1.33 4.01 -1.66 3.02 -2 2 C-1.34 1.34 -0.68 0.68 0 0 Z " fill="#E7D97A" transform="translate(26,17)"/>
<path d="M0 0 C1.32 0 2.64 0 4 0 C4 0.99 4 1.98 4 3 C3.34 3 2.68 3 2 3 C2 3.99 2 4.98 2 6 C1.34 6 0.68 6 0 6 C-0.33 6.66 -0.66 7.32 -1 8 C-1.33 6.35 -1.66 4.7 -2 3 C-1.34 3 -0.68 3 0 3 C0 2.01 0 1.02 0 0 Z " fill="#E7EFEC" transform="translate(179,24)"/>
<path d="M0 0 C0.99 0 1.98 0 3 0 C3 2.64 3 5.28 3 8 C2.01 8 1.02 8 0 8 C-0.79953138 4.71303767 -1.09658936 3.28976808 0 0 Z " fill="#DCEFF8" transform="translate(160,27)"/>
<path d="M0 0 C1.32 0 2.64 0 4 0 C4 1.98 4 3.96 4 6 C2.68 6 1.36 6 0 6 C0 4.02 0 2.04 0 0 Z " fill="#2A2529" transform="translate(80,21)"/>
<path d="M0 0 C0.66 0 1.32 0 2 0 C2 2.64 2 5.28 2 8 C1.01 8 0.02 8 -1 8 C-1.04241723 5.66705225 -1.04092937 3.33297433 -1 1 C-0.67 0.67 -0.34 0.34 0 0 Z " fill="#FCF6E7" transform="translate(78,30)"/>
<path d="M0 0 C3.875 1.75 3.875 1.75 5 4 C1.37 3.67 -2.26 3.34 -6 3 C-6 2.67 -6 2.34 -6 2 C-4.02 2 -2.04 2 0 2 C0 1.34 0 0.68 0 0 Z " fill="#886D37" transform="translate(34,43)"/>
<path d="M0 0 C0.33 0 0.66 0 1 0 C1.66 3.63 2.32 7.26 3 11 C2.01 11 1.02 11 0 11 C0 7.37 0 3.74 0 0 Z " fill="#F1EDD2" transform="translate(85,27)"/>
<path d="M0 0 C2.31 0.33 4.62 0.66 7 1 C6.01 2.485 6.01 2.485 5 4 C5 3.34 5 2.68 5 2 C4.01 2.66 3.02 3.32 2 4 C1.01 4 0.02 4 -1 4 C-0.67 2.68 -0.34 1.36 0 0 Z " fill="#503A37" transform="translate(34,33)"/>
<path d="M0 0 C0.33 1.98 0.66 3.96 1 6 C0.01 6 -0.98 6 -2 6 C-2.66 4.35 -3.32 2.7 -4 1 C-2 0 -2 0 0 0 Z " fill="#A49173" transform="translate(42,28)"/>
<path d="M0 0 C0.33 0 0.66 0 1 0 C1.33 2.64 1.66 5.28 2 8 C3.32 8.33 4.64 8.66 6 9 C4.68 9 3.36 9 2 9 C1.67 9.99 1.34 10.98 1 12 C0.03929566 9.11788698 -0.10581883 7.30149956 -0.0625 4.3125 C-0.05347656 3.50425781 -0.04445312 2.69601563 -0.03515625 1.86328125 C-0.02355469 1.24839844 -0.01195312 0.63351563 0 0 Z " fill="#E7D7BA" transform="translate(134,18)"/>
<path d="M0 0 C1.98 0 3.96 0 6 0 C6 0.99 6 1.98 6 3 C4.02 3 2.04 3 0 3 C0 2.01 0 1.02 0 0 Z " fill="#FDFCFA" transform="translate(149,24)"/>
<path d="M0 0 C0.33 1.32 0.66 2.64 1 4 C0.34 4 -0.32 4 -1 4 C-1 4.99 -1 5.98 -1 7 C-1.66 7 -2.32 7 -3 7 C-3.1875 4.625 -3.1875 4.625 -3 2 C-2.01 1.34 -1.02 0.68 0 0 Z " fill="#B2A696" transform="translate(28,31)"/>
</svg>
