<?xml version="1.0" encoding="UTF-8"?>
<svg version="1.1" xmlns="http://www.w3.org/2000/svg" width="144" height="52">
<path d="M0 0 C47.52 0 95.04 0 144 0 C144 17.16 144 34.32 144 52 C96.48 52 48.96 52 0 52 C0 34.84 0 17.68 0 0 Z " fill="#FDFCFF" transform="translate(0,0)"/>
<path d="M0 0 C2.475 0.495 2.475 0.495 5 1 C5.99 3.97 6.98 6.94 8 10 C8.66 10 9.32 10 10 10 C10.99 6.7 11.98 3.4 13 0 C14.32 0 15.64 0 17 0 C17 5.28 17 10.56 17 16 C16.34 16 15.68 16 15 16 C14.67 13.03 14.34 10.06 14 7 C12.68 9.97 11.36 12.94 10 16 C9.01 15.67 8.02 15.34 7 15 C5.3125 11.4375 5.3125 11.4375 4 8 C3.67 10.64 3.34 13.28 3 16 C2.01 16 1.02 16 0 16 C0 10.72 0 5.44 0 0 Z " fill="#A68AFF" transform="translate(115,15)"/>
<path d="M0 0 C0 1.32 0 2.64 0 4 C-0.64066406 4.07476563 -1.28132813 4.14953125 -1.94140625 4.2265625 C-8.40110749 5.2085141 -12.73123346 6.93083973 -17 12 C-18.8897881 15.27820385 -19.48905007 18.25303387 -20 22 C-21.32 22 -22.64 22 -24 22 C-24.63499364 16.92005087 -23.32594417 14.04736682 -20.5546875 9.9609375 C-14.9887044 2.94052666 -9.13240888 -0.43487661 0 0 Z " fill="#A689FF" transform="translate(29,1)"/>
<path d="M0 0 C0.99 0 1.98 0 3 0 C3.86508687 5.47888349 1.839451 9.09936982 -1.02734375 13.5859375 C-4.65220022 18.02190046 -9.45991253 21.42151324 -15.19921875 22.359375 C-17.125 22.375 -17.125 22.375 -20 22 C-20 20.68 -20 19.36 -20 18 C-19.40832031 17.89042969 -18.81664062 17.78085937 -18.20703125 17.66796875 C-10.31988872 16.22445953 -10.31988872 16.22445953 -4.625 10.9453125 C-2.55655822 7.36079691 -0.85313167 4.07092178 0 0 Z " fill="#A487FF" transform="translate(32,23)"/>
<path d="M0 0 C3 0.25 3 0.25 5 2.25 C5.265625 4.125 5.265625 4.125 5.25 6.25 C5.25515625 6.95125 5.2603125 7.6525 5.265625 8.375 C5 10.25 5 10.25 3 12.25 C0 12.5 0 12.5 -3 12.25 C-5 10.25 -5 10.25 -5.265625 8.375 C-5.26046875 7.67375 -5.2553125 6.9725 -5.25 6.25 C-5.25515625 5.54875 -5.2603125 4.8475 -5.265625 4.125 C-4.77431879 0.65695617 -3.28862917 0.27405243 0 0 Z " fill="#A689FF" transform="translate(60,18.75)"/>
<path d="M0 0 C2.875 -0.125 2.875 -0.125 6 0 C8 2 8 2 8.1953125 4.3828125 C8.17210938 5.28773437 8.14890625 6.19265625 8.125 7.125 C8.10695313 8.03507812 8.08890625 8.94515625 8.0703125 9.8828125 C8.04710938 10.58148438 8.02390625 11.28015625 8 12 C5.03 12 2.06 12 -1 12 C-1.625 9.625 -1.625 9.625 -2 7 C0 5 0 5 3.125 4.875 C4.07375 4.91625 5.0225 4.9575 6 5 C6 4.01 6 3.02 6 2 C3.69 2.33 1.38 2.66 -1 3 C-0.67 2.01 -0.34 1.02 0 0 Z " fill="#C2AEFF" transform="translate(72,19)"/>
<path d="M0 0 C0 0.99 0 1.98 0 3 C-1.65 3.33 -3.3 3.66 -5 4 C-5.09796875 4.61488281 -5.1959375 5.22976562 -5.296875 5.86328125 C-6.51515152 12.44827586 -6.51515152 12.44827586 -8.8125 15.0625 C-11.36752447 16.15751049 -13.24706838 16.22941097 -16 16 C-16 15.01 -16 14.02 -16 13 C-15.236875 12.855625 -14.47375 12.71125 -13.6875 12.5625 C-10.48251085 10.69913422 -10.404704 9.93051118 -9.375 6.5 C-9.17648438 5.7059375 -8.97796875 4.911875 -8.7734375 4.09375 C-7.1680814 -0.25206247 -4.0652225 -0.21974176 0 0 Z " fill="#A385FF" transform="translate(28,15)"/>
<path d="M0 0 C1.670625 0.061875 1.670625 0.061875 3.375 0.125 C4.035 1.445 4.695 2.765 5.375 4.125 C4.715 4.125 4.055 4.125 3.375 4.125 C3.375 3.465 3.375 2.805 3.375 2.125 C1.395 2.455 -0.585 2.785 -2.625 3.125 C-2.295 4.115 -1.965 5.105 -1.625 6.125 C1.87794871 7.84067661 1.87794871 7.84067661 5.375 9.125 C5.5 11.5 5.5 11.5 5.375 14.125 C3.375 16.125 3.375 16.125 -0.25 16.25 C-1.36375 16.20875 -2.4775 16.1675 -3.625 16.125 C-4.285 14.805 -4.945 13.485 -5.625 12.125 C-4.965 12.125 -4.305 12.125 -3.625 12.125 C-3.625 12.785 -3.625 13.445 -3.625 14.125 C-1.315 14.125 0.995 14.125 3.375 14.125 C3.41789755 12.19390419 3.41789755 12.19390419 2.375 10.125 C0.6425 9.4134375 0.6425 9.4134375 -1.125 8.6875 C-4.625 7.125 -4.625 7.125 -5.6875 4.5625 C-5.57852884 0.31262468 -4.02097931 0.13865446 0 0 Z " fill="#AA8FFF" transform="translate(47.625,14.875)"/>
<path d="M0 0 C0.99 0 1.98 0 3 0 C2.63015313 6.16411455 1.29761357 8.80005946 -3 13 C-6.42492304 14.88370767 -9.12059131 15.2216805 -13 15 C-13 14.01 -13 13.02 -13 12 C-12.45730469 11.81824219 -11.91460937 11.63648438 -11.35546875 11.44921875 C-10.64003906 11.19785156 -9.92460937 10.94648437 -9.1875 10.6875 C-8.12595703 10.32205078 -8.12595703 10.32205078 -7.04296875 9.94921875 C-3.41524015 8.26367754 -2.20543942 6.55144265 -0.8125 2.8125 C-0.544375 1.884375 -0.27625 0.95625 0 0 Z " fill="#A183FF" transform="translate(25,23)"/>
<path d="M0 0 C0 0.99 0 1.98 0 3 C-1.2375 3.37125 -2.475 3.7425 -3.75 4.125 C-8.1076542 5.74465908 -9.82982559 7.83326513 -12 12 C-12.33 12.99 -12.66 13.98 -13 15 C-13.99 15 -14.98 15 -16 15 C-15.58649697 9.72783638 -14.82965008 6.72614602 -11 3 C-7.1961651 0.65295294 -4.47413897 -0.39477697 0 0 Z " fill="#A183FF" transform="translate(28,8)"/>
<path d="M0 0 C3.3 0 6.6 0 10 0 C10 0.66 10 1.32 10 2 C7.36 2 4.72 2 2 2 C2 3.65 2 5.3 2 7 C4.31 7 6.62 7 9 7 C9 7.66 9 8.32 9 9 C6.69 9 4.38 9 2 9 C2 11.31 2 13.62 2 16 C1.34 16 0.68 16 0 16 C0 10.72 0 5.44 0 0 Z " fill="#9C7CFF" transform="translate(104,15)"/>
<path d="M0 0 C6.0546875 -0.1953125 6.0546875 -0.1953125 8 0 C10 2 10 2 10.1953125 4.3828125 C10.17210938 5.28773437 10.14890625 6.19265625 10.125 7.125 C10.10695313 8.03507812 10.08890625 8.94515625 10.0703125 9.8828125 C10.04710938 10.58148438 10.02390625 11.28015625 10 12 C9.34 12 8.68 12 8 12 C7.67 9.03 7.34 6.06 7 3 C5.68 3 4.36 3 3 3 C2.67 5.97 2.34 8.94 2 12 C1.34 12 0.68 12 0 12 C0 8.04 0 4.08 0 0 Z " fill="#A78BFF" transform="translate(81,19)"/>
<path d="M0 0 C1.66611905 -0.042721 3.33382885 -0.04063832 5 0 C6 1 6 1 6.0625 4.0625 C6.041875 5.031875 6.02125 6.00125 6 7 C4.02 7.99 4.02 7.99 2 9 C0.4375 7.875 0.4375 7.875 -1 6 C-0.6875 2.8125 -0.6875 2.8125 0 0 Z " fill="#F8F7FF" transform="translate(57,21)"/>
<path d="M0 0 C1.32 0 2.64 0 4 0 C4 5.28 4 10.56 4 16 C3.34 16 2.68 16 2 16 C1.67 13.03 1.34 10.06 1 7 C0.01 7.33 -0.98 7.66 -2 8 C-1.47731534 5.23723823 -0.89130413 2.6739124 0 0 Z " fill="#9F80FF" transform="translate(128,15)"/>
<path d="M0 0 C2.875 -0.125 2.875 -0.125 6 0 C8 2 8 2 8.1953125 4.3828125 C8.17210938 5.28773437 8.14890625 6.19265625 8.125 7.125 C8.10695313 8.03507812 8.08890625 8.94515625 8.0703125 9.8828125 C8.04710938 10.58148438 8.02390625 11.28015625 8 12 C5.69 12 3.38 12 1 12 C1.639375 11.566875 2.27875 11.13375 2.9375 10.6875 C5.26746003 9.08760823 5.26746003 9.08760823 6 6 C5.01 5.67 4.02 5.34 3 5 C3.99 5 4.98 5 6 5 C6 4.01 6 3.02 6 2 C3.69 2.33 1.38 2.66 -1 3 C-0.67 2.01 -0.34 1.02 0 0 Z " fill="#A487FF" transform="translate(94,19)"/>
<path d="M0 0 C2.97 0 5.94 0 9 0 C9 1.98 9 3.96 9 6 C6.03 5.67 3.06 5.34 0 5 C0 3.35 0 1.7 0 0 Z " fill="#F2EEFF" transform="translate(106,17)"/>
<path d="M0 0 C3.125 0.375 3.125 0.375 6 1 C5.875 2.875 5.875 2.875 5 5 C1.9375 6.25 1.9375 6.25 -1 7 C-1.625 4.625 -1.625 4.625 -2 2 C-1.34 1.34 -0.68 0.68 0 0 Z " fill="#D3C5FF" transform="translate(94,24)"/>
<path d="M0 0 C2.875 -0.1875 2.875 -0.1875 6 0 C8 3 8 3 7.625 5.6875 C7.41875 6.450625 7.2125 7.21375 7 8 C6.67 8 6.34 8 6 8 C5.9071875 6.824375 5.9071875 6.824375 5.8125 5.625 C5.544375 4.75875 5.27625 3.8925 5 3 C2.52363988 1.62533375 2.52363988 1.62533375 0 1 C0 0.67 0 0.34 0 0 Z " fill="#B49CFF" transform="translate(57,19)"/>
<path d="M0 0 C0.66 0 1.32 0 2 0 C2 0.66 2 1.32 2 2 C1.34 2 0.68 2 0 2 C0.75150023 5.27773504 0.75150023 5.27773504 4 7 C2.35 7 0.7 7 -1 7 C-1.625 4.625 -1.625 4.625 -2 2 C-1.34 1.34 -0.68 0.68 0 0 Z " fill="#A68AFF" transform="translate(72,24)"/>
</svg>
